<?xml version="1.0" encoding="UTF-8" standalone="no"?>
<svg width="55px" height="55px" viewBox="0 0 55 55" version="1.1" xmlns="http://www.w3.org/2000/svg" xmlns:xlink="http://www.w3.org/1999/xlink">
    <!-- Generator: Sketch 3.6.1 (26313) - http://www.bohemiancoding.com/sketch -->
    <title>Desktop HD Copy 11</title>
    <desc>Created with Sketch.</desc>
    <defs></defs>
    <g id="Website" stroke="none" stroke-width="1" fill="none" fill-rule="evenodd">
        <g id="Desktop-HD-Copy-11" transform="translate(-156.000000, -1317.000000)">
            <g id="Group-26" transform="translate(-32.000000, 810.000000)">
                <rect id="Rectangle-69" x="0" y="0" width="1504" height="992"></rect>
                <g id="Group-21" transform="translate(197.000000, 314.000000)">
                    <g id="Group-8" transform="translate(7.000000, 199.000000)">
                        <g id="Group-2">
                            <g id="ic_check_circle_black_24px-(1)">
                                <g id="Group">
                                    <path d="M0,0 L22.5,0 L22.5,22.4420998 L0,22.4420998 L0,0 Z" id="Shape"></path>
                                    <path d="M11.25,1.87017499 C6.075,1.87017499 1.875,6.05936696 1.875,11.2210499 C1.875,16.3827329 6.075,20.5719249 11.25,20.5719249 C16.425,20.5719249 20.625,16.3827329 20.625,11.2210499 C20.625,6.05936696 16.425,1.87017499 11.25,1.87017499 L11.25,1.87017499 Z M9.375,15.8964874 L4.6875,11.2210499 L6.009375,9.90257656 L9.375,13.2501898 L16.490625,6.15287571 L17.8125,7.48069995 L9.375,15.8964874 L9.375,15.8964874 Z" id="Shape" fill="#FF009B"></path>
                                </g>
                            </g>
                            <g id="ic_radio_button_unchecked_black_24px" transform="translate(0.000000, 21.782038)">
                                <g id="Group">
                                    <path d="M11.25,1.87017499 C6.075,1.87017499 1.875,6.05936696 1.875,11.2210499 C1.875,16.3827329 6.075,20.5719249 11.25,20.5719249 C16.425,20.5719249 20.625,16.3827329 20.625,11.2210499 C20.625,6.05936696 16.425,1.87017499 11.25,1.87017499 L11.25,1.87017499 Z M11.25,18.7017499 C7.10625,18.7017499 3.75,15.3541366 3.75,11.2210499 C3.75,7.0879632 7.10625,3.74034997 11.25,3.74034997 C15.39375,3.74034997 18.75,7.0879632 18.75,11.2210499 C18.75,15.3541366 15.39375,18.7017499 11.25,18.7017499 L11.25,18.7017499 Z" id="Shape" fill="#FF009B"></path>
                                    <path d="M0,0 L22.5,0 L22.5,22.4420998 L0,22.4420998 L0,0 Z" id="Shape"></path>
                                </g>
                            </g>
                        </g>
                    </g>
                </g>
            </g>
        </g>
    </g>
</svg>
