<?xml version="1.0" encoding="UTF-8" standalone="no"?>
<svg width="55px" height="55px" viewBox="0 0 55 55" version="1.1" xmlns="http://www.w3.org/2000/svg" xmlns:xlink="http://www.w3.org/1999/xlink">
    <!-- Generator: Sketch 3.6.1 (26313) - http://www.bohemiancoding.com/sketch -->
    <title>Desktop HD Copy 11</title>
    <desc>Created with Sketch.</desc>
    <defs></defs>
    <g id="Website" stroke="none" stroke-width="1" fill="none" fill-rule="evenodd">
        <g id="Desktop-HD-Copy-11" transform="translate(-730.000000, -1116.000000)">
            <g id="Group-26" transform="translate(-32.000000, 810.000000)">
                <rect id="Rectangle-69" x="0" y="0" width="1504" height="992"></rect>
                <g id="Group-21" transform="translate(197.000000, 314.000000)">
                    <g id="Group-6" transform="translate(574.000000, 0.000000)">
                        <g id="ic_gesture_black_24px">
                            <g id="Group">
                                <path d="M7.65,11.4833333 C8.81666667,10.3 9.98333333,9.23333333 10.5,9.45 C11.3333333,9.78333333 10.5,11.1666667 10,11.9833333 C9.58333333,12.6833333 5.23333333,18.4666667 5.23333333,22.5 C5.23333333,24.6333333 6.03333333,26.4 7.46666667,27.4666667 C8.71666667,28.4 10.3666667,28.6833333 11.8666667,28.2333333 C13.65,27.7166667 15.1166667,25.9 16.9666667,23.6166667 C18.9833333,21.1333333 21.6833333,17.8833333 23.7666667,17.8833333 C26.4833333,17.8833333 26.5166667,19.5666667 26.7,20.8666667 C20.4,21.9333333 17.7333333,26.9833333 17.7333333,29.8166667 C17.7333333,32.65 20.1333333,34.9666667 23.0833333,34.9666667 C25.8,34.9666667 30.2333333,32.75 30.9,24.8 L35,24.8 L35,20.6333333 L30.8833333,20.6333333 C30.6333333,17.8833333 29.0666667,13.6333333 24.1666667,13.6333333 C20.4166667,13.6333333 17.2,16.8166667 15.9333333,18.3666667 C14.9666667,19.5833333 12.5,22.5 12.1166667,22.9 C11.7,23.4 10.9833333,24.3 10.2666667,24.3 C9.51666667,24.3 9.06666667,22.9166667 9.66666667,21.1 C10.25,19.2833333 12,16.3333333 12.75,15.2333333 C14.05,13.3333333 14.9166667,12.0333333 14.9166667,9.76666667 C14.9166667,6.15 12.1833333,5 10.7333333,5 C8.53333333,5 6.61666667,6.66666667 6.2,7.08333333 C5.6,7.68333333 5.1,8.18333333 4.73333333,8.63333333 L7.65,11.4833333 L7.65,11.4833333 Z M23.1333333,30.9166667 C22.6166667,30.9166667 21.9,30.4833333 21.9,29.7166667 C21.9,28.7166667 23.1166667,26.05 26.6833333,25.1166667 C26.1833333,29.6 24.3,30.9166667 23.1333333,30.9166667 L23.1333333,30.9166667 Z" id="Shape" fill="#A82ED1"></path>
                                <path d="M0,0 L40,0 L40,40 L0,40 L0,0 Z" id="Shape"></path>
                            </g>
                        </g>
                    </g>
                </g>
            </g>
        </g>
    </g>
</svg>
