<?xml version="1.0" encoding="UTF-8" standalone="no"?>
<svg width="55px" height="55px" viewBox="0 0 55 55" version="1.1" xmlns="http://www.w3.org/2000/svg" xmlns:xlink="http://www.w3.org/1999/xlink">
    <!-- Generator: Sketch 3.6.1 (26313) - http://www.bohemiancoding.com/sketch -->
    <title>Desktop HD Copy 11</title>
    <desc>Created with Sketch.</desc>
    <defs></defs>
    <g id="Website" stroke="none" stroke-width="1" fill="none" fill-rule="evenodd">
        <g id="Desktop-HD-Copy-11" transform="translate(-156.000000, -1124.000000)">
            <g id="Group-26" transform="translate(-32.000000, 810.000000)">
                <rect id="Rectangle-69" x="0" y="0" width="1504" height="992"></rect>
                <g id="Group-21" transform="translate(197.000000, 314.000000)">
                    <g id="Group-4" transform="translate(0.000000, 7.000000)">
                        <g id="ic_folder_open_black_24px">
                            <g id="Group">
                                <path d="M0,0 L40,0 L40,40 L0,40 L0,0 Z" id="Shape"></path>
                                <path d="M33.3333333,10 L20,10 L16.6666667,6.66666667 L6.66666667,6.66666667 C4.83333333,6.66666667 3.35,8.16666667 3.35,10 L3.33333333,30 C3.33333333,31.8333333 4.83333333,33.3333333 6.66666667,33.3333333 L33.3333333,33.3333333 C35.1666667,33.3333333 36.6666667,31.8333333 36.6666667,30 L36.6666667,13.3333333 C36.6666667,11.5 35.1666667,10 33.3333333,10 L33.3333333,10 Z M33.3333333,30 L6.66666667,30 L6.66666667,13.3333333 L33.3333333,13.3333333 L33.3333333,30 L33.3333333,30 Z" id="Shape" fill="#3590FC"></path>
                            </g>
                        </g>
                    </g>
                </g>
            </g>
        </g>
    </g>
</svg>
