<?xml version="1.0" encoding="UTF-8" standalone="no"?>
<svg width="81px" height="81px" viewBox="0 0 81 81" version="1.1" xmlns="http://www.w3.org/2000/svg" xmlns:xlink="http://www.w3.org/1999/xlink">
    <!-- Generator: Sketch 3.6.1 (26313) - http://www.bohemiancoding.com/sketch -->
    <title>Logo-Outline</title>
    <desc>Created with Sketch.</desc>
    <defs></defs>
    <g id="Website" stroke="none" stroke-width="1" fill="none" fill-rule="evenodd">
        <g id="Desktop-HD-Copy-3" transform="translate(-189.000000, -181.000000)" stroke="#FFFFFF">
            <g id="Logo-Outline" transform="translate(175.000000, 167.000000)">
                <path d="M40.0524293,60.0152135 L33.6616295,60.0355869 C33.3881238,60.0364588 33.2765062,59.833491 33.4008209,59.6056467 C33.4008209,59.6056467 37.9575393,51.0904461 39.3793687,51.0904461 C40.4393923,51.0904461 40.3127769,52.5685514 40.3127769,52.5685514 C40.3127769,52.5685514 39.7365702,71.9414226 39.905822,73.0034156 C40.0750739,74.0654086 40.7452231,75.057329 42.2874462,75.0265513 C43.8296694,74.9957736 47.6700554,67.6292497 47.6700554,67.6292497 L65.6327984,35.9046933 C65.7673367,35.667081 66.1048343,35.4744582 66.3740021,35.4744582 L75.4130617,35.4744582 C75.6878789,35.4744582 75.7997029,35.6709378 75.664685,35.9100187 L55.2872932,71.9929769 C55.2872932,71.9929769 54.24972,73.4897296 53.6639379,74.0408251 C53.0781558,74.5919207 52.7474807,74.8607258 52.1288963,75.016034 C51.5103119,75.1713421 42.2019792,75.0268094 42.2019792,75.0268094" id="Path-1176" stroke-width="1.5"></path>
                <path d="M39.2558594,51.0974121 C39.2558594,51.0974121 45.1747065,51.1226807 46.777832,51.1226807 C47.9730184,51.1226807 47.8170547,52.676494 47.8170547,52.676494 L47.6664042,67.7676344" id="Path-1176-Copy" stroke-width="1.5"></path>
                <rect id="Rectangle-363" stroke-width="2" opacity="0.802413713" transform="translate(54.500000, 54.500000) rotate(-48.000000) translate(-54.500000, -54.500000) " x="16" y="16" width="77" height="77" rx="54"></rect>
            </g>
        </g>
    </g>
</svg>