<?xml version="1.0" encoding="UTF-8" standalone="no"?>
<svg width="55px" height="55px" viewBox="0 0 55 55" version="1.1" xmlns="http://www.w3.org/2000/svg" xmlns:xlink="http://www.w3.org/1999/xlink">
    <!-- Generator: Sketch 3.6.1 (26313) - http://www.bohemiancoding.com/sketch -->
    <title>Desktop HD Copy 11</title>
    <desc>Created with Sketch.</desc>
    <defs></defs>
    <g id="Website" stroke="none" stroke-width="1" fill="none" fill-rule="evenodd">
        <g id="Desktop-HD-Copy-11" transform="translate(-733.000000, -1317.000000)">
            <g id="Group-26" transform="translate(-32.000000, 810.000000)">
                <rect id="Rectangle-69" x="0" y="0" width="1504" height="992"></rect>
                <g id="Group-21" transform="translate(197.000000, 314.000000)">
                    <g id="Group-14" transform="translate(576.000000, 200.000000)">
                        <g id="ic_alarm_black_24px">
                            <g id="Group">
                                <path d="M0,0 L40,0 L40,40 L0,40 L0,0 Z" id="Shape"></path>
                                <path d="M36.6666667,9.53333333 L29,3.1 L26.85,5.65 L34.5166667,12.0833333 L36.6666667,9.53333333 L36.6666667,9.53333333 Z M13.1333333,5.65 L11,3.1 L3.33333333,9.51666667 L5.48333333,12.0666667 L13.1333333,5.65 L13.1333333,5.65 Z M20.8333333,13.3333333 L18.3333333,13.3333333 L18.3333333,23.3333333 L26.25,28.0833333 L27.5,26.0333333 L20.8333333,22.0833333 L20.8333333,13.3333333 L20.8333333,13.3333333 Z M20,6.66666667 C11.7166667,6.66666667 5,13.3833333 5,21.6666667 C5,29.95 11.7,36.6666667 20,36.6666667 C28.2833333,36.6666667 35,29.95 35,21.6666667 C35,13.3833333 28.2833333,6.66666667 20,6.66666667 L20,6.66666667 Z M20,33.3333333 C13.55,33.3333333 8.33333333,28.1166667 8.33333333,21.6666667 C8.33333333,15.2166667 13.55,10 20,10 C26.45,10 31.6666667,15.2166667 31.6666667,21.6666667 C31.6666667,28.1166667 26.45,33.3333333 20,33.3333333 L20,33.3333333 Z" id="Shape" fill="#EE1111"></path>
                            </g>
                        </g>
                    </g>
                </g>
            </g>
        </g>
    </g>
</svg>
