<?xml version="1.0" encoding="UTF-8" standalone="no"?>
<svg width="307px" height="103px" viewBox="0 0 307 103" version="1.1" xmlns="http://www.w3.org/2000/svg" xmlns:xlink="http://www.w3.org/1999/xlink">
    <!-- Generator: Sketch 3.6.1 (26313) - http://www.bohemiancoding.com/sketch -->
    <title>SCMP</title>
    <desc>Created with Sketch.</desc>
    <defs></defs>
    <g id="Website" stroke="none" stroke-width="1" fill="none" fill-rule="evenodd">
        <g id="Desktop-HD-Copy-3" transform="translate(-153.000000, -929.000000)" fill="#4A4A4A">
            <g id="Group-5" transform="translate(0.000000, 810.000000)">
                <g id="Group-30" transform="translate(153.000000, 119.000000)">
                    <g id="SCMP">
                        <path d="M129.429573,41.0955984 C127.306701,39.596675 124.247267,38.6390295 119.127399,37.8271127 C118.398962,37.7022024 118.336525,37.6605656 118.690337,37.4523818 C119.918273,36.7237385 120.834022,35.8701849 121.208646,35.1415415 C121.604083,34.3296247 121.624896,33.8299835 121.687333,18.7366575 C121.749771,3.56005789 121.728958,3.14369027 121.333521,2.22768152 C121.000521,1.47821981 120.729959,1.20758086 119.959898,0.874486766 C119.439586,0.645484578 119.023336,0.416482389 119.023336,0.374845628 C119.023336,0.312390485 122.228457,0.270753724 126.162015,0.270753724 C133.217444,0.291572104 133.279881,0.291572104 132.551445,0.666302959 C132.156008,0.895305147 131.635696,1.270036 131.406758,1.51985657 C131.011321,1.95704257 130.990509,2.31095504 130.928072,11.6792264 C130.886447,19.3612089 130.928072,21.4014102 131.136196,21.5471389 C131.656508,21.880233 133.696131,22.5672395 134.715942,22.7754234 C135.985503,23.0044255 137.171814,22.7337866 137.525626,22.0884168 C137.712938,21.7345043 137.754563,19.1530251 137.712938,11.8041367 C137.650501,2.31095504 137.629688,1.95704257 137.234251,1.51985657 C137.005314,1.270036 136.485002,0.895305147 136.089565,0.666302959 C135.361128,0.291572104 135.423566,0.291572104 142.18762,0.270753724 C145.933865,0.270753724 148.993299,0.312390485 148.993299,0.395664008 C148.993299,0.458119151 148.722737,0.603847816 148.389737,0.70793972 C148.056738,0.832850005 147.598863,1.18676248 147.390738,1.47821981 C147.036926,1.99867933 147.016114,2.87305132 146.912052,13.5945174 C146.807989,24.8156247 146.787177,25.1695371 146.370927,26.0855459 C145.80899,27.2513752 145.163804,27.8551083 144.019118,28.2714759 C141.271871,29.2291214 137.608876,28.0424737 132.801194,24.6074409 C131.864633,23.9412527 131.032134,23.3791564 130.990509,23.3791564 C130.928072,23.3791564 130.886447,27.5428326 130.886447,32.6433358 C130.886447,37.7438391 130.824009,41.9075153 130.719947,41.9075153 C130.636697,41.9075153 130.053948,41.5536028 129.429573,41.0955984 L129.429573,41.0955984 Z" id="svg_2" transform="translate(133.737155, 21.089135) scale(1, -1) translate(-133.737155, -21.089135) "></path>
                        <path d="M199.151361,41.3402144 C196.945239,39.674744 192.761932,38.3007308 188.536999,37.8219081 C188.016688,37.7594529 187.558813,37.7178162 187.496376,37.6969978 C187.433938,37.6969978 187.871,37.4263588 188.432937,37.0932647 C189.015686,36.7601706 189.64006,36.3021663 189.848185,36.0731641 C190.805559,35.0114267 190.805559,34.9489715 190.826372,18.190175 L190.826372,2.34738721 L190.264435,1.66038064 C189.952248,1.30646817 189.369498,0.84846379 188.953249,0.661098363 C188.245625,0.328004271 188.328875,0.328004271 191.82537,0.265549128 C193.802555,0.244730748 196.986864,0.244730748 198.901611,0.265549128 C202.294045,0.328004271 202.356482,0.328004271 201.648858,0.661098363 C201.232608,0.84846379 200.712297,1.26483141 200.504172,1.5979255 C200.108735,2.18084016 200.087922,2.6804813 200.025485,11.7364769 L199.963048,21.2712953 L201.295046,21.8958468 C203.60523,22.9575842 205.79054,23.1033129 206.581414,22.2497592 C206.935226,21.85421 206.956039,21.1672034 206.956039,12.0071159 C206.956039,0.994192456 207.018476,1.38974169 205.436728,0.681916744 C204.666667,0.328004271 204.708292,0.328004271 208.038287,0.265549128 C209.91141,0.244730748 212.950031,0.244730748 214.802341,0.265549128 C218.173962,0.328004271 218.194775,0.328004271 217.528776,0.702735125 C217.154151,0.890100552 216.737902,1.26483141 216.592214,1.53547036 C216.384089,1.88938283 216.30084,4.67904585 216.21759,13.4435842 L216.113527,24.8936936 L215.530778,26.1011597 C214.760717,27.6209015 213.657655,28.3287264 211.76372,28.4744551 C208.954036,28.7034573 205.936228,27.4127177 201.190984,23.9776848 L199.98386,23.1033129 L199.942235,32.4924026 L199.879798,41.8814923 L199.151361,41.3402144 L199.151361,41.3402144 Z" id="svg_3" transform="translate(202.680668, 21.065714) scale(1, -1) translate(-202.680668, -21.065714) "></path>
                        <path d="M173.010894,42.552356 C167.329088,41.2616164 162.563032,37.2644873 159.794973,31.4977958 C156.652289,24.9400059 156.548227,16.4252882 159.545223,10.1797739 C161.168596,6.78637785 164.352905,4.05916997 167.93265,2.99743254 C170.700709,2.16469731 174.696704,2.20633408 177.319076,3.08070607 C181.877008,4.62126625 185.810565,9.15967326 187.933438,15.3010956 C188.682687,17.507844 188.349687,17.9033932 187.392313,15.925647 C186.122752,13.3233494 183.812568,10.7418702 181.89782,9.74258792 C180.565822,9.07639973 178.775949,8.66003212 177.110951,8.66003212 C172.344895,8.63921374 168.994086,11.6786973 167.225026,17.6535726 C166.038715,21.5882466 165.934653,28.333402 166.996089,32.4970781 C168.203212,37.2436689 170.846397,40.1374239 174.259642,40.4913363 C175.966265,40.6578834 176.986076,40.2623342 178.318075,38.9299578 C179.71251,37.5143079 180.461759,36.1819315 181.377508,33.4963604 C181.73132,32.4138046 182.126757,31.4769775 182.251632,31.4353407 C182.355695,31.4145223 183.646068,33.1840847 185.102941,35.390833 L187.746125,39.3879622 L187.059314,39.9708768 C185.977065,40.8452488 184.208005,41.7196208 182.501382,42.2192619 C180.503384,42.822995 175.008891,42.989542 173.010894,42.552356 L173.010894,42.552356 Z" id="svg_4" transform="translate(172.854862, 22.598203) scale(1, -1) translate(-172.854862, -22.598203) "></path>
                        <path d="M224.584204,11.3765464 C222.607019,10.6687215 221.587208,9.16979808 221.587208,6.94223133 C221.587208,4.15256831 223.980642,2.13318537 226.956826,2.44546108 C228.767511,2.63282651 230.09951,3.52801688 230.890384,5.06857706 C231.452321,6.17195124 231.265008,8.52442827 230.536572,9.62780246 C229.350261,11.4181832 226.811139,12.1676449 224.584204,11.3765464 L224.584204,11.3765464 Z" id="svg_5" transform="translate(226.402808, 7.051935) scale(1, -1) translate(-226.402808, -7.051935) "></path>
                        <path d="M25.1590791,42.26836 C19.9559606,41.1441674 16.1056529,37.8340449 14.7320296,33.3372746 C14.3574051,32.1714453 14.3157801,31.5468939 14.3782176,29.5899661 C14.5030924,26.3631171 14.9609668,25.2389245 16.9173394,23.2819967 C18.6863997,21.5332527 20.4346475,20.617244 25.0342042,19.035047 C28.6139497,17.8067626 30.1124479,17.0781192 31.3195713,16.0372002 C32.5891322,14.9546444 33.1302566,13.6639048 33.151069,11.7486138 C33.192694,6.91874943 29.6129485,4.31645183 24.6803922,5.60719144 C21.7042084,6.37747152 19.622961,8.8964956 18.2909627,13.3724475 C18.041213,14.1843643 17.7498383,14.8713709 17.645776,14.8713709 C17.4792762,14.8713709 16.459465,13.622268 13.0462192,9.18795293 C11.6101585,7.31429866 11.5269086,7.62657437 14.0244055,6.02355905 C16.8340895,4.25399668 20.3097726,3.25471441 24.4514549,3.06734898 C27.6773884,2.92162031 29.9667605,3.21307765 32.2769451,4.04581288 C36.7308146,5.66964658 39.7278108,8.7924037 40.7684345,12.8936247 C41.7466208,16.7033884 41.0181842,20.180058 38.7288121,22.6366269 C36.793252,24.6976466 34.4830674,25.9467495 29.1758865,27.7995854 C22.8072695,30.0271521 21.1422716,31.4219836 21.1422716,34.6488326 C21.1422716,37.8132265 23.0153942,39.8742462 26.1997028,40.2073403 C29.7378233,40.5612528 32.2353202,38.6667801 34.2125052,34.1283731 C34.6079422,33.2123644 35.0033792,32.4420843 35.1074416,32.4004475 C35.2739414,32.3588107 39.602936,38.4794147 39.8526856,39.1247845 C40.0816229,39.7285175 37.3135638,41.1441674 34.5455048,41.8728108 C32.006383,42.5181806 27.2611389,42.705546 25.1590791,42.26836 L25.1590791,42.26836 Z" id="svg_7" transform="translate(26.616668, 22.768480) scale(1, -1) translate(-26.616668, -22.768480) "></path>
                        <path d="M111.572471,41.2647967 C109.220661,36.8513 104.912479,32.7084422 101.332734,31.3968842 C100.645922,31.1470636 100.083985,30.8764247 100.083985,30.7723328 C100.083985,30.6890592 100.812422,30.5849673 101.707358,30.5433306 L103.309919,30.4808754 L103.413981,19.3430417 C103.518043,7.14347057 103.476418,7.64311171 104.808417,6.41482724 C105.682541,5.60291039 106.51504,5.22817954 108.1176,4.97835897 C111.093784,4.49953621 114.548655,5.39472658 116.858839,7.22674409 C117.837025,7.99702418 119.647711,10.3495012 119.647711,10.8491423 C119.647711,10.9532343 119.293899,10.7658688 118.877649,10.4327747 C116.567465,8.62157561 114.049155,8.45502856 113.091781,10.0372255 C112.696344,10.6825953 112.675532,11.1405997 112.675532,20.5921446 L112.675532,30.4808754 L115.85984,30.4808754 L119.023336,30.4808754 L119.023336,31.6675231 L119.023336,32.8541708 L115.85984,32.916626 L112.675532,32.9790811 L112.613094,37.7256719 C112.592282,40.3279695 112.48822,42.4514444 112.384157,42.4514444 C112.300907,42.4514444 111.926283,41.9101665 111.572471,41.2647967 L111.572471,41.2647967 Z" id="svg_10" transform="translate(109.865848, 23.651121) scale(1, -1) translate(-109.865848, -23.651121) "></path>
                        <path d="M54.2965426,42.377367 C51.8614831,41.9609994 49.176674,40.5245311 47.2203014,38.5676033 C44.5771172,35.923669 43.3283688,32.9674589 43.1202441,28.8662379 C42.8080569,22.6623604 45.5969285,17.5202204 50.5919222,15.042833 C54.4630423,13.1483604 58.8336619,13.127542 62.7255945,15.042833 C66.1388402,16.7083035 68.32415,19.248146 69.6145234,23.0579097 C70.4262098,25.4520234 70.5510847,29.1576952 69.9267105,31.7808112 C68.3865874,38.2345092 62.9545317,42.5855508 56.6067272,42.5022773 C55.6285409,42.4814589 54.5879172,42.4190038 54.2965426,42.377367 L54.2965426,42.377367 Z M58.2509126,40.3996208 C59.4164111,39.7958878 59.9575355,38.8382423 60.4778473,36.4857653 C61.0397841,33.8834677 61.0397841,22.4333582 60.4778473,19.851879 C59.8742856,17.0413976 59.0417866,15.7922948 57.4808511,15.4592007 C55.9199155,15.0844698 54.4422299,15.8131131 53.6721683,17.3536733 C52.7564195,19.1440541 52.5274823,21.2050738 52.5274823,28.054321 C52.5274823,34.8619316 52.6939821,36.7355858 53.4848561,38.5676033 C53.9843554,39.7334327 54.6087297,40.3788025 55.4620411,40.6494414 C56.4818523,40.9408987 57.2935388,40.8784436 58.2509126,40.3996208 L58.2509126,40.3996208 Z" id="svg_13" transform="translate(56.709070, 28.058807) scale(1, -1) translate(-56.709070, -28.058807) "></path>
                        <path d="M81.6649458,42.0747387 C81.0405715,41.5750975 78.8552618,40.617452 77.0029516,40.0345373 C75.5877034,39.5973513 73.7562057,39.2018021 71.0089591,38.7437977 C70.1556477,38.6188874 70.1348352,38.3690669 70.9257092,38.0567912 C71.6749583,37.7236971 72.7363945,36.6411413 73.0069566,35.8916796 C73.1526439,35.5169487 73.2358938,32.2900997 73.2358938,26.8356839 C73.2358938,17.5715045 73.3399562,16.5930406 74.3805799,15.2190274 C75.2963287,14.0323797 76.5034522,13.5743754 78.8552618,13.5951937 C80.5410722,13.5951937 81.0821965,13.6992856 82.5182572,14.2405635 C84.2873175,14.9067517 86.3269399,16.0309443 88.1168127,17.3008655 C88.6787495,17.7172331 89.2198738,18.0503272 89.2823112,18.0503272 C89.3655611,18.0503272 89.4696235,17.3425023 89.5112484,16.4889487 C89.6153108,14.0948349 89.3447486,14.1989268 95.463616,14.15729 C99.5636733,14.1156533 100.521047,14.15729 100.20886,14.3654738 C99.1474239,15.0524804 98.7936118,15.5104848 98.6062995,16.3848568 C98.5230496,16.9053163 98.4397997,22.9634651 98.4189873,29.8751675 C98.4189873,36.7660516 98.3773623,42.4078327 98.3357374,42.4078327 C98.2941124,42.4078327 97.7113632,42.0747387 97.045364,41.6791894 C95.5052409,40.7423623 91.9463079,39.5973513 88.8452493,39.0560734 C87.5340634,38.8062529 86.4310023,38.5980691 86.3893773,38.5772507 C86.3685649,38.5356139 86.8472518,38.1817014 87.4508135,37.7653338 C89.3447486,36.516231 89.3447486,36.516231 89.4279985,28.7717933 C89.5112484,20.881627 89.490436,20.8191719 87.8462505,19.6949793 C86.7640019,18.9871544 85.3487537,18.4666948 84.4538173,18.4666948 C83.7045682,18.4666948 82.8720693,19.0496095 82.6223196,19.7366161 C82.4766322,20.1946205 82.3933824,23.8794738 82.3933824,31.3949093 C82.3933824,37.4530581 82.3309449,42.4078327 82.247695,42.4078327 C82.1436327,42.4078327 81.893883,42.2412857 81.6649458,42.0747387 L81.6649458,42.0747387 Z" id="svg_14" transform="translate(85.306752, 28.001175) scale(1, -1) translate(-85.306752, -28.001175) "></path>
                        <path d="M229.433511,41.0801403 C227.289826,39.8726743 225.229391,39.2689412 219.797335,38.2280222 L218.881586,38.0614751 L220.00546,37.3328318 C222.003457,35.979637 221.94102,36.416823 221.94102,25.3622628 C221.94102,14.4950681 222.003457,14.9738908 220.25521,14.2036107 C219.75571,13.9746086 219.339461,13.7456064 219.339461,13.7039696 C219.339461,13.6415145 222.586207,13.5998777 226.582202,13.6206961 L233.80413,13.6206961 L232.930006,14.0162453 C232.409694,14.2452475 231.86857,14.7032519 231.61882,15.0988011 C231.223383,15.7649893 231.202571,16.1397202 231.202571,28.8597508 C231.202571,36.0420922 231.140134,41.9128756 231.056884,41.8920572 C230.952821,41.8920572 230.245197,41.5173263 229.433511,41.0801403 L229.433511,41.0801403 Z" id="svg_15" transform="translate(226.342858, 27.753697) scale(1, -1) translate(-226.342858, -27.753697) "></path>
                        <path d="M245.459116,41.3870558 C243.523555,40.1795897 240.089497,39.1386707 235.177753,38.2226619 L234.262005,38.0561148 L235.427503,37.2858348 C237.425501,35.9534584 237.342251,36.4947363 237.404688,25.8357253 C237.467126,16.8630032 237.446313,16.4882724 237.050876,15.5722636 C236.717877,14.8019835 236.447314,14.5313446 235.635628,14.1566137 L234.636629,13.6986093 L238.216375,13.6361542 C240.19356,13.6153358 243.440306,13.6153358 245.396678,13.6361542 C248.893174,13.6986093 248.976424,13.6986093 248.2688,14.0317034 C247.873363,14.2190688 247.353051,14.5729813 247.124113,14.8436203 C246.728676,15.2808063 246.707864,15.6347187 246.645427,24.9613533 L246.582989,34.6002636 L247.082489,34.9125394 C247.353051,35.0999048 248.081487,35.4121805 248.705861,35.6203643 C251.411483,36.5571914 253.118106,36.3281892 253.367856,34.9958129 C253.430293,34.621082 253.471918,30.0410382 253.430293,24.8156247 C253.367856,15.6347187 253.347043,15.2808063 252.951606,14.8436203 C252.722669,14.5937997 252.202357,14.2190688 251.80692,13.9900667 C251.078484,13.6153358 251.140921,13.6153358 257.904975,13.5945174 C261.73447,13.5945174 264.689841,13.6777909 264.627404,13.7818829 C264.564967,13.8651564 264.231967,14.0733402 263.91978,14.1982505 C262.733469,14.6978916 262.733469,14.5729813 262.629407,27.022373 L262.525344,38.4724825 L262.005032,39.5134015 C261.672033,40.1795897 261.151721,40.7833227 260.589784,41.178872 C259.736473,41.7617866 259.569973,41.8034234 257.676038,41.8034234 C255.92779,41.8034234 255.449103,41.7201499 254.200355,41.1996903 C252.389669,40.4502286 250.516547,39.3676728 248.414487,37.8687494 C247.51955,37.2233796 246.749489,36.7029201 246.687052,36.7029201 C246.645427,36.7029201 246.603802,37.8687494 246.603802,39.3052177 C246.603802,40.741686 246.541364,41.9075153 246.458114,41.9075153 C246.354052,41.9075153 245.91699,41.6576947 245.459116,41.3870558 L245.459116,41.3870558 Z" id="svg_16" transform="translate(249.445190, 27.751016) scale(1, -1) translate(-249.445190, -27.751016) "></path>
                        <path d="M277.406263,42.2435043 C273.888955,41.5773161 270.05946,39.7452986 268.602587,37.9965546 C266.625402,35.664896 266.771089,33.1458719 268.935586,32.167408 C270.121897,31.6261301 272.411269,31.6261301 273.59758,32.1465896 C275.054453,32.8127778 275.512328,33.7912417 276.365639,38.0590098 C276.927576,40.8486728 279.383448,41.8687735 280.548947,39.8077538 C281.006821,39.0166553 281.048446,38.6835612 281.048446,36.4351761 C281.048446,34.082699 281.006821,33.8745152 280.486509,32.9793249 C279.758073,31.7510404 278.571762,30.9599419 275.991015,29.981478 C271.120896,28.1078238 269.310211,27.1709966 267.603588,25.5679813 C266.146715,24.1939682 265.647215,22.9448653 265.647215,20.5091148 C265.647215,18.7603708 265.709653,18.3856399 266.229965,17.3447209 C266.937589,15.9082526 268.103087,14.8465152 269.684835,14.2219638 C271.308208,13.576594 274.867141,13.576594 276.615389,14.2011454 C278.21795,14.7840601 279.57076,15.7625239 280.465697,16.9908084 C280.902759,17.5529047 281.298196,17.9484539 281.381446,17.844362 C281.464695,17.7610885 281.631195,17.3655393 281.75607,16.96999 C282.546944,14.4717843 285.648003,13.1602264 289.102873,13.8472329 C290.726246,14.1595086 291.85012,14.7007865 292.869931,15.7000688 C293.86893,16.6368959 294.638991,18.0109091 294.160305,18.0109091 C293.993805,18.0109091 293.848117,17.9484539 293.848117,17.8651804 C293.848117,17.7610885 293.53593,17.4904496 293.161306,17.240629 C292.474494,16.7618062 291.454683,16.6160776 291.038433,16.9283533 C290.205935,17.5320863 290.205935,17.4904496 290.101872,28.1910973 L289.99781,38.5170141 L289.394248,39.5995699 C288.249562,41.6605896 286.459689,42.3684146 282.08907,42.4933249 C280.049447,42.5349616 278.655011,42.4725065 277.406263,42.2435043 L277.406263,42.2435043 Z M280.528134,20.0927472 C279.321011,17.7402701 275.94939,17.4904496 274.867141,19.6763795 C274.367642,20.6548434 274.388454,23.1530491 274.887954,24.6103358 C275.345828,25.9843489 276.282389,27.0044496 278.280387,28.3992811 C279.154511,29.0030141 280.091072,29.7316575 280.361634,30.0231148 L280.840321,30.5435743 L280.902759,25.7345283 C280.944384,21.2377581 280.923571,20.8630272 280.528134,20.0927472 L280.528134,20.0927472 Z" id="svg_17" transform="translate(279.976664, 28.085558) scale(1, -1) translate(-279.976664, -28.085558) "></path>
                        <path d="M131.329912,60.4638232 C130.247664,60.1099107 128.936478,58.9440814 128.520228,57.9447991 C128.083166,56.90388 128.145604,55.0302258 128.665916,53.9893067 C129.45679,52.3238363 131.517225,51.2620989 133.536035,51.4702827 C136.200031,51.7409216 137.885842,53.5521207 137.885842,56.0919632 C137.885842,57.4035212 137.53203,58.3611667 136.678718,59.2771755 C135.554845,60.5262783 133.16141,61.0467378 131.329912,60.4638232 L131.329912,60.4638232 Z" id="svg_6" transform="translate(133.057832, 56.073257) scale(1, -1) translate(-133.057832, -56.073257) "></path>
                        <path d="M3.66619733,90.696337 C5.39363267,90.0717855 6.12206925,88.8851378 6.12206925,86.761663 C6.10125678,83.9303632 4.1656967,58.4278467 3.8535096,56.9705601 C3.49969754,55.2218161 2.68801106,54.1184419 1.33520025,53.5355273 C0.85651335,53.3273434 0.440263872,53.0983413 0.440263872,53.0358861 C0.440263872,52.973431 2.79207343,52.9317942 5.64338235,52.9317942 C10.4718763,52.9317942 11.9287495,53.0983413 10.1180642,53.4314353 C9.70181477,53.5147089 9.05662808,53.847803 8.66119107,54.2017154 C7.41244264,55.3050896 7.39163016,55.5757286 8.22412912,68.5872166 C8.99419065,80.2871466 9.16069045,82.389803 9.30637776,82.2440744 C9.36881519,82.1816192 13.0318106,71.3768796 19.0258031,53.5563456 C19.1923029,53.0567045 19.4004276,52.8277023 19.6709898,52.8277023 C20.0039894,52.8277023 20.3578014,53.6604375 21.7938621,57.7200218 C22.7512359,60.4055929 25.1030455,67.0466564 27.0177931,72.4802538 C30.2229141,81.4946126 30.5351012,82.2648927 30.659976,81.5362494 C30.7432259,81.078245 30.9929756,77.6432122 31.2427253,73.8542669 C31.492475,70.08614 31.8670995,64.6525426 32.0544118,61.779606 C32.283349,58.4070284 32.3457864,56.2627351 32.2209116,55.7006389 C32.0127868,54.6389014 30.9721631,53.6396192 29.8899145,53.4314353 C27.891917,53.0567045 29.8066646,52.9317942 37.1742804,52.9317942 C41.5865248,52.9317942 45.1870828,52.9942494 45.1870828,53.0983413 C45.1662703,53.1816148 44.6875834,53.4730721 44.0840217,53.7645294 C42.1276491,54.7013566 42.210899,54.3474441 41.2327128,67.8169365 C40.7748383,74.2289978 40.2545265,81.2864288 40.0880267,83.4723588 C39.6717772,88.9059562 39.8590895,89.7803282 41.7530246,90.6338818 C42.5855236,91.029431 42.5647111,91.029431 36.6539685,91.029431 C33.3864101,91.029431 30.5975386,90.9461575 30.4726637,90.862884 C30.3269764,90.7796105 28.5995411,86.2203851 26.6431685,80.7659693 C24.6659835,75.3115536 23.0009856,70.8356017 22.9385482,70.8356017 C22.8761108,70.8356017 22.3349864,72.27207 21.7314247,74.0208139 C17.3191802,87.0947571 16.1744942,90.3424245 15.8831195,90.6755186 C15.5917449,90.9877943 15.0089956,91.029431 9.20231539,91.0086127 C3.39563517,91.0086127 2.89613579,90.9669759 3.66619733,90.696337 L3.66619733,90.696337 Z" id="svg_8" transform="translate(22.813673, 71.928567) scale(1, -1) translate(-22.813673, -71.928567) "></path>
                        <path d="M206.025881,90.4881531 C207.420317,89.9468752 208.460941,88.9684114 208.752315,87.9066739 C208.898003,87.3237593 208.981253,82.2857111 208.981253,71.6267002 C208.981253,54.2433522 209.04369,55.0344507 207.482754,54.01435 C207.004068,53.7020743 206.296443,53.3897986 205.921819,53.3273434 C203.882196,52.9526126 205.776132,52.8277023 214.101121,52.8277023 C219.116927,52.8277023 223.133735,52.9109758 223.029673,52.9942494 C222.904798,53.0775229 222.363673,53.2857067 221.780924,53.4314353 C220.074301,53.847803 219.325052,54.3266257 218.80474,55.325908 C218.346866,56.2419168 218.346866,56.3876454 218.388491,62.2792472 L218.450928,68.2749408 L220.844363,68.2541225 C224.94442,68.1916673 227.816542,68.7537636 230.730288,70.1902319 C235.059282,72.3345251 237.286217,75.6862844 237.286217,80.0789628 C237.286217,85.8040175 234.372471,88.9267746 227.608417,90.4465164 C226.422106,90.7171553 224.236796,90.7796105 215.537182,90.8420656 L204.92282,90.9253391 L206.025881,90.4881531 L206.025881,90.4881531 Z M223.778922,88.4063151 C226.380481,87.7401269 227.483542,85.2419212 227.504354,80.0997811 C227.504354,75.1658249 226.401293,72.2928883 224.111921,71.2519693 C222.883985,70.689873 220.719488,70.3984157 219.30424,70.6065995 L218.346866,70.7523282 L218.388491,79.6417768 L218.450928,88.5312254 L219.283427,88.676954 C220.261613,88.8226827 222.717485,88.6977724 223.778922,88.4063151 L223.778922,88.4063151 Z" id="svg_9" transform="translate(221.104519, 71.876521) scale(1, -1) translate(-221.104519, -71.876521) "></path>
                        <path d="M298.183516,89.751863 C296.851518,87.3785676 295.457082,85.5673684 293.583959,83.7769877 C291.731649,82.0282437 290.337213,81.0914166 288.54734,80.40441 C287.818904,80.1337711 287.236155,79.8423137 287.236155,79.7590402 C287.236155,79.6757667 287.922966,79.5924932 288.755465,79.5508564 L290.253963,79.4884012 L290.358026,68.3297491 L290.462088,57.171097 L291.086462,56.1718148 C291.856524,54.9435303 293.00121,54.2981605 294.999207,53.9858848 C298.787078,53.4029701 303.282572,55.0476222 305.218132,57.7123749 C306.570943,59.5652108 306.924755,60.7518585 305.738444,59.4819373 C305.467882,59.1696616 304.78107,58.7116572 304.198321,58.4410183 C302.179511,57.4833728 300.181513,57.9830139 299.723639,59.5443925 C299.577952,60.0856704 299.515514,63.3957929 299.557139,69.9119461 L299.619577,79.4884012 L302.741448,79.530038 L305.863319,79.5508564 L305.925756,80.7166857 L305.988194,81.882515 L302.741448,81.882515 L299.515514,81.882515 L299.515514,86.6707426 C299.515514,89.314677 299.432264,91.4589702 299.328202,91.4589702 C299.22414,91.4589702 298.72464,90.6886901 298.183516,89.751863 L298.183516,89.751863 Z" id="svg_11" transform="translate(296.847245, 72.663796) scale(1, -1) translate(-296.847245, -72.663796) "></path>
                        <path d="M194.162771,102.670381 C192.89321,102.212377 191.582024,101.192276 190.95765,100.172175 C190.624651,99.651716 190.312463,99.2561667 190.250026,99.2978035 C187.440342,100.900819 185.213407,101.442097 182.237224,101.254731 C177.949854,101.004911 174.432546,98.7981623 172.725923,95.3214928 C172.080736,94.0099348 172.039111,93.8225693 172.039111,91.6366394 C172.039111,88.4722455 172.517798,87.1606875 174.411733,85.2662148 C175.160982,84.5167531 176.180794,83.7256547 176.680293,83.5174708 L177.554417,83.1219216 L176.326481,81.8520004 C174.80717,80.3114402 173.683297,78.5210595 173.516797,77.292775 C173.225422,75.4399391 174.224421,73.6079216 175.889419,72.8792783 L176.701106,72.5045474 L174.97367,71.8591776 C170.956863,70.3394358 169.146178,68.3616896 169.520802,65.8843023 C169.895427,63.3652782 173.162985,61.7206262 178.990478,61.1168931 C181.820974,60.8254358 185.40072,60.9711645 187.544404,61.4499872 C189.896214,61.9704467 193.05971,63.5734621 194.454146,64.9474752 C197.867392,68.3200529 197.721704,73.2331907 194.141959,75.6897597 C192.72671,76.6474052 190.79115,77.292775 187.024093,78.0838735 C180.239226,79.5203417 179.718914,79.6660704 179.240227,80.1657115 C178.782353,80.6653527 178.678291,81.5189063 179.01129,82.1642761 C179.17779,82.4765518 179.34429,82.5181886 179.989476,82.3516415 C181.529599,81.9977291 185.463157,82.1226393 187.128155,82.6014621 C193.247022,84.2877509 196.264831,89.8254402 193.913021,95.009217 C193.621647,95.6129501 193.163772,96.4040486 192.872398,96.7787794 C192.102336,97.7988801 192.019086,98.4234315 192.539398,99.0896197 C193.22621,99.9639917 193.871397,99.8390814 194.537396,98.7148888 C195.203395,97.5490595 195.744519,97.1535103 196.660268,97.1535103 C198.429328,97.1535103 199.532389,98.4442499 199.36589,100.276267 C199.303452,100.817545 199.095327,101.504552 198.86639,101.796009 C198.075516,102.878565 195.869394,103.294933 194.162771,102.670381 L194.162771,102.670381 Z M184.547408,99.3186219 C185.504782,98.8606175 186.025094,97.6739698 186.316469,95.279856 C186.628656,92.7608319 186.441343,87.6603286 185.983469,86.1822236 C185.48397,84.5167531 184.922033,83.9962936 183.569222,83.8922017 C182.174786,83.7881098 181.550412,84.1003855 180.926038,85.2245781 C179.843789,87.1815059 179.822977,95.883589 180.884413,98.069519 C181.571224,99.5268057 183.04891,100.026447 184.547408,99.3186219 L184.547408,99.3186219 Z M187.669279,69.9022498 C189.001278,69.2985168 189.792152,68.5282367 190.062714,67.5289544 C190.354088,66.4255802 190.125151,65.6136634 189.251027,64.6351995 C188.147966,63.406915 186.940843,62.9072739 184.110346,62.4909063 C182.924035,62.3243592 179.927039,62.6990901 178.574228,63.1987312 C177.200605,63.7191907 176.035106,64.7809281 175.681294,65.8218472 C175.119358,67.5289544 175.889419,70.0896152 177.346292,71.4219916 L178.116354,72.1089982 L182.382911,71.2346262 C184.73472,70.734985 187.107343,70.1520704 187.669279,69.9022498 L187.669279,69.9022498 Z" id="svg_12" transform="translate(184.427545, 81.964764) scale(1, -1) translate(-184.427545, -81.964764) "></path>
                        <path d="M55.2186952,91.154205 C50.9521381,90.009194 47.6221423,87.0113472 45.9571443,82.8268527 C45.1662703,80.8491065 44.9165207,78.9546339 45.020583,76.1857892 C45.2078953,72.1053866 46.3942063,69.3157235 49.1206404,66.5676973 C53.2206977,62.4456579 59.2771277,61.5088308 64.7299958,64.1319467 C68.3305538,65.8598723 71.1194253,69.6279993 71.9519243,73.8541306 C72.4306112,76.2898811 72.2641114,79.6416404 71.5564873,81.8275704 C70.1204266,86.2827039 67.0818054,89.4262794 62.7319983,90.9668396 C60.9213131,91.6122094 57.2375052,91.7163013 55.2186952,91.154205 L55.2186952,91.154205 Z M60.567501,89.2805507 C62.1076241,88.1979949 62.6487484,85.6789708 62.8152482,78.9754522 C63.0025605,71.0436492 62.4198112,66.9216098 60.9213131,65.4226863 C60.0263767,64.527496 58.8608782,64.1944019 57.7370046,64.4858592 C54.989758,65.2353209 54.198884,68.5870802 54.4070088,78.74645 C54.5318836,84.8462356 54.6983834,86.2827039 55.5725073,87.9898111 C56.0511942,88.9266382 56.613131,89.4470978 57.3831925,89.6969183 C58.2781289,89.9883757 59.9015019,89.7801919 60.567501,89.2805507 L60.567501,89.2805507 Z" id="svg_18" transform="translate(58.611024, 77.091457) scale(1, -1) translate(-58.611024, -77.091457) "></path>
                        <path d="M82.961723,90.0727747 C80.7556008,88.886127 78.6743534,88.2615756 73.3255476,87.2414749 L72.4097987,87.0749279 L73.5128598,86.3462846 C75.5524823,85.0139082 75.4692324,85.5343677 75.5316698,74.6879913 C75.5941072,63.7791598 75.6565446,64.1538906 73.8042345,63.2378819 L72.7636108,62.7174224 L76.5722935,62.6549672 C82.2332864,62.5716937 88.0191542,62.696604 87.5404673,62.8839694 C86.3957812,63.3419738 85.6673446,63.8207965 85.2719076,64.3412561 C84.8556581,64.9241707 84.8348456,65.1948097 84.7724082,74.4173524 C84.7099708,84.8889979 84.6475334,84.3060832 86.0211567,85.0139082 C87.0201554,85.5343677 87.4364049,85.3678207 88.6643408,84.077081 C89.6633396,83.0153436 89.9547142,82.8279782 90.8080257,82.7030679 C93.9090843,82.2450635 95.8030194,84.1187178 95.4908323,87.3663852 C95.30352,89.5106784 94.2837088,90.6973261 92.4522111,90.8846916 C90.4958385,91.072057 88.8724656,90.2393218 86.2500939,87.6994793 L84.7307833,86.2421926 L84.7307833,88.5738513 C84.7307833,89.8645909 84.6683458,90.9055099 84.585096,90.9055099 C84.4810336,90.8846916 83.7734095,90.5099607 82.961723,90.0727747 L82.961723,90.0727747 Z" id="svg_19" transform="translate(83.967063, 76.769335) scale(1, -1) translate(-83.967063, -76.769335) "></path>
                        <path d="M106.479819,90.5662221 C105.002133,89.4212111 101.235075,88.0055612 98.154829,87.443465 C97.1350177,87.2560995 96.2400814,87.0687341 96.1984564,87.0479157 C96.1568315,87.006279 96.4482061,86.6940032 96.8436431,86.3400908 C97.2390801,85.9861783 97.6761421,85.3616269 97.8010169,84.9036225 C97.9883292,84.3207078 98.0507666,81.1979507 98.0507666,74.3903402 L98.0507666,64.7097931 L97.4888298,64.0227866 C97.1766427,63.6688741 96.5938934,63.2108697 96.1776439,63.0235043 C95.4700198,62.6904102 95.5532697,62.6904102 99.0497653,62.6279551 C101.02695,62.6071367 104.211259,62.6071367 106.126006,62.6279551 C109.51844,62.6904102 109.580877,62.6904102 108.873253,63.0235043 C108.457004,63.2108697 107.936692,63.6272373 107.728567,63.9603314 C107.33313,64.5432461 107.312317,65.0428872 107.24988,74.0988829 L107.187443,83.6337013 L108.498628,84.2166159 C110.996125,85.3408085 113.014935,85.4865372 113.805809,84.6121652 C114.159621,84.2166159 114.180434,83.5712461 114.180434,74.3695218 C114.180434,63.3565984 114.242871,63.7521476 112.661123,63.0443227 C111.891062,62.6904102 111.932687,62.6904102 115.262683,62.6279551 C117.135805,62.6071367 120.174426,62.6071367 122.026737,62.6279551 C125.398357,62.6904102 125.41917,62.6904102 124.753171,63.0651411 C124.378546,63.2525065 123.962297,63.6272373 123.816609,63.8978763 C123.608485,64.2517888 123.525235,67.0414518 123.441985,75.8059901 L123.337922,87.2560995 L122.755173,88.4635656 C122.297299,89.358756 121.943487,89.7751236 121.235863,90.1914912 C120.091176,90.8576794 118.155616,91.0658632 116.553056,90.6911324 C114.888058,90.3164015 111.953499,88.8174781 109.60169,87.172826 C108.457004,86.3609092 107.458005,85.694721 107.374755,85.694721 C107.270693,85.694721 107.208255,86.8605503 107.208255,88.2970186 C107.208255,89.7334868 107.145818,90.8993162 107.062568,90.8993162 C106.958505,90.8993162 106.708756,90.7327691 106.479819,90.5662221 L106.479819,90.5662221 Z" id="svg_20" transform="translate(110.460211, 76.755829) scale(1, -1) translate(-110.460211, -76.755829) "></path>
                        <path d="M136.699531,90.3788009 C134.992908,89.2546083 131.39235,88.1095974 127.60448,87.4642275 C126.522231,87.2768621 125.606482,87.1103151 125.58567,87.0894967 C125.544045,87.0686783 126.022732,86.7147658 126.605481,86.3192166 C128.624291,85.0076586 128.541041,85.5281181 128.603478,74.6817417 C128.665916,63.7729102 128.728353,64.1476411 126.876043,63.2316323 L125.835419,62.7111728 L129.415165,62.6487177 C131.371537,62.6278993 134.659908,62.6278993 136.699531,62.6487177 L140.404151,62.7111728 L139.405152,63.1691772 C137.740154,63.9394573 137.802592,63.2940875 137.802592,78.0126827 C137.802592,85.1117505 137.740154,90.9200788 137.656904,90.8992604 C137.552842,90.8992604 137.136593,90.6702582 136.699531,90.3788009 L136.699531,90.3788009 Z" id="svg_21" transform="translate(132.993648, 76.766210) scale(1, -1) translate(-132.993648, -76.766210) "></path>
                        <path d="M151.185013,90.1747967 C149.041328,88.9673306 146.668706,88.2595056 141.382337,87.239405 L140.466588,87.0728579 L141.56965,86.3442146 C143.609272,85.0118382 143.526022,85.5322977 143.58846,74.6859214 C143.650897,63.8811817 143.692522,64.1518207 141.985899,63.2982671 C141.4864,63.0484465 141.028525,62.7778075 140.966088,62.7153524 C140.90365,62.6528973 144.087959,62.6112605 148.021516,62.6112605 L155.181008,62.6320789 L154.390134,63.0484465 C153.953072,63.2774487 153.411947,63.7562714 153.203822,64.1310023 C152.808385,64.7555537 152.787573,65.2343765 152.787573,74.2070986 L152.787573,83.6378251 L153.994696,84.2415581 C155.389132,84.9493831 157.22063,85.3449323 158.302879,85.1575669 C159.697314,84.9285647 159.655689,85.2408404 159.655689,74.4152824 C159.655689,63.4856325 159.697314,63.8187266 158.157191,63.0692649 L157.262255,62.6320789 L164.109559,62.6112605 C167.876617,62.6112605 170.894425,62.6737156 170.831988,62.7361708 C170.748738,62.8194443 170.498988,62.9859914 170.249239,63.1109016 C169.999489,63.2358119 169.583239,63.6105428 169.354302,63.9228185 C168.91724,64.5057331 168.91724,64.7555537 168.813178,76.1015712 C168.709116,87.6141358 168.709116,87.6974093 168.251241,88.5717813 C166.752743,91.3614444 163.235435,91.6945385 158.781565,89.4461533 C157.033318,88.5717813 156.783568,88.4052343 154.431758,86.7189454 C153.661697,86.1568492 152.995698,85.7196632 152.912448,85.7196632 C152.85001,85.7196632 152.787573,86.8854925 152.787573,88.3219608 C152.787573,89.758429 152.725136,90.9242584 152.641886,90.90344 C152.537823,90.90344 151.892637,90.5703459 151.185013,90.1747967 L151.185013,90.1747967 Z" id="svg_22" transform="translate(155.649764, 76.768300) scale(1, -1) translate(-155.649764, -76.768300) "></path>
                        <path d="M246.693455,91.1222227 C242.114711,89.8939382 238.65984,86.5005421 237.14053,81.7955881 C236.432906,79.6096581 236.266406,76.2578988 236.745093,73.8221482 C238.576591,64.6620607 248.067079,59.9987434 256.392068,64.1832379 C260.95,66.4732598 263.718059,71.2614874 263.718059,76.8616318 C263.718059,79.3806559 263.447497,80.9628528 262.739873,82.7948703 C261.220562,86.604634 258.431691,89.3734787 254.685445,90.7474918 C252.416886,91.6010454 249.00364,91.7675925 246.693455,91.1222227 L246.693455,91.1222227 Z M252.083886,89.2485684 C252.895573,88.6656537 253.457509,87.5206428 253.894571,85.5428966 C254.435696,83.0863277 254.414883,71.1157587 253.852946,68.7424633 C253.20776,65.9528003 252.396073,64.8077893 250.814325,64.4538769 C249.211765,64.0999644 247.838141,64.8077893 247.005642,66.4732598 C246.81833,66.8271723 246.506143,67.8889097 246.298018,68.8673736 C245.736082,71.4488528 245.736082,82.8989623 246.298018,85.4804415 C246.880768,88.1243758 247.484329,89.1236581 248.83714,89.6232992 C249.711264,89.9563933 251.334637,89.7690279 252.083886,89.2485684 L252.083886,89.2485684 Z" id="svg_23" transform="translate(250.095610, 77.075466) scale(1, -1) translate(-250.095610, -77.075466) "></path>
                        <path d="M274.124296,91.3018789 C273.166922,91.1353319 271.543549,90.5732356 270.294801,89.9486842 C266.964805,88.2832137 265.008432,84.5150868 265.591182,80.9551437 C266.153118,77.4368373 268.255178,75.7505485 274.74867,73.5438001 C277.787291,72.5028811 278.640603,72.1073319 279.618789,71.2329599 C280.867538,70.1504041 281.05485,68.4641152 280.139101,66.6529161 C278.78629,63.967345 274.977607,63.6342509 271.959799,65.9450911 C270.919175,66.7361896 269.607989,68.7139358 268.900365,70.5251349 C268.588178,71.3162334 268.255178,72.00324 268.151116,72.0240583 C268.067866,72.0448767 267.568367,71.5244172 267.048055,70.858229 C266.527743,70.1920408 265.507932,68.9221196 264.779495,68.0269292 L263.426684,66.4030955 L264.155121,65.7993625 C265.112495,64.9874456 267.901366,63.6550693 269.503927,63.2387016 C272.667423,62.4267848 277.475104,62.4476032 279.889351,63.25952 C284.988407,64.9874456 287.818904,69.1303034 287.02803,73.6687104 C286.403656,77.2911087 284.259971,79.0190343 277.454292,81.3715113 C272.604985,83.0369818 271.21055,84.036264 271.21055,85.8058264 C271.21055,88.8036732 274.83192,90.6148724 277.766479,89.0951306 C278.86954,88.5330343 280.305601,86.7842903 281.304599,84.7857258 C281.845724,83.7239883 282.345223,82.9328899 282.428473,83.0369818 C282.74066,83.3700759 286.008219,88.3248505 286.112281,88.6371262 C286.362031,89.2616776 282.761473,90.7814194 279.993414,91.2186054 C278.578165,91.4476076 275.206545,91.4892444 274.124296,91.3018789 L274.124296,91.3018789 Z" id="svg_24" transform="translate(275.293036, 77.029974) scale(1, -1) translate(-275.293036, -77.029974) "></path>
                    </g>
                </g>
            </g>
        </g>
    </g>
</svg>