<?xml version="1.0" encoding="UTF-8" standalone="no"?>
<svg width="136px" height="103px" viewBox="0 0 136 103" version="1.1" xmlns="http://www.w3.org/2000/svg" xmlns:xlink="http://www.w3.org/1999/xlink">
    <!-- Generator: Sketch 3.6.1 (26313) - http://www.bohemiancoding.com/sketch -->
    <title>StartUpsHK</title>
    <desc>Created with Sketch.</desc>
    <defs></defs>
    <g id="Website" stroke="none" stroke-width="1" fill="none" fill-rule="evenodd">
        <g id="Desktop-HD-Copy-3" transform="translate(-629.000000, -929.000000)" fill="#4A4A4A">
            <g id="Group-5" transform="translate(0.000000, 810.000000)">
                <g id="Group-30" transform="translate(153.000000, 119.000000)">
                    <g id="StartUpsHK" transform="translate(476.000000, 0.000000)">
                        <path d="M0.176482385,25.9340857 L22.160826,25.8342918 L22.3037991,54.3955366 L43.7497598,54.3955366 L43.7497598,25.8342918 L65.9105858,25.8342918 L65.9105858,101.040786 L43.7497598,101.040786 L43.7497598,69.8961117 L22.160826,69.8961117 L22.160826,100.897262 L0.142973071,100.897262 L0.176482385,25.9340857 Z M68.9130203,25.8342918 L68.9130203,101.184309 L90.9308732,101.040786 L90.9308732,67.5997302 L94.2192538,67.743254 L110.089265,102.188976 L135.252525,99.6055472 L111.947915,57.5530611 L131.249279,25.5472441 L108.087642,25.5472441 L91.0738463,56.6919181 L91.0738463,25.5472441 L68.9130203,25.8342918 Z M2.85946142,16.7922897 L0.285946142,20.3803857 C0.285946142,20.3803857 3.71729985,23.2508626 10.008115,23.2508626 C16.2989301,23.2508626 21.1600145,22.3897195 21.1600145,16.3617181 C21.1600145,10.3337167 16.155957,10.3337167 13.0105495,9.6160975 C9.86514191,8.89847828 6.86270741,9.32904981 6.71973434,6.74562063 C6.57676127,4.16219145 9.86514191,4.44923914 12.2956841,4.44923914 C14.7262263,4.44923914 17.4427147,6.17152526 17.4427147,6.17152526 L20.159203,2.29638149 C20.159203,2.29638149 18.014607,0.143523843 10.7229803,0.143523843 C3.43135371,0.143523843 1.85864992,2.58342918 1.71567685,7.03266832 C1.57270378,11.4819075 4.57513827,13.0606697 10.2940611,13.6347651 C16.012984,14.2088605 16.155957,15.3570512 16.155957,16.6487658 C16.155957,17.9404804 15.4050956,19.1878288 11.2948726,19.232195 C7.18464961,19.2765612 2.85946142,16.7922897 2.85946142,16.7922897 Z M118.524676,17.5099089 L116.094134,21.098005 C116.094134,21.098005 118.845876,23.2508626 123.671706,23.2508626 C128.497537,23.2508626 132.107118,22.7750712 132.250091,17.9404804 C132.393064,13.1058896 128.229218,13.0370768 125.816303,12.4865744 C123.403387,11.9360719 121.95603,12.1995267 121.95603,10.7642882 C121.95603,9.32904981 123.957653,9.47257365 125.673329,9.47257365 C127.389006,9.47257365 129.533602,10.4772406 129.533602,10.4772406 L131.821172,7.03266832 C131.821172,7.03266832 129.837175,5.45390604 124.243599,5.45390604 C118.650022,5.45390604 117.237918,7.75028753 117.190913,11.0257769 C117.143909,14.3012662 119.954407,15.9311466 123.528733,16.2181943 C127.10306,16.505242 127.674952,17.366385 127.674952,18.0840042 C127.674952,18.8016235 127.246033,19.6627665 123.957653,19.5192427 C120.669272,19.3757188 118.524676,17.5099089 118.524676,17.5099089 Z M23.7335298,9.75962134 L20.8740684,9.75962134 L20.8740684,5.74095373 L24.0227237,5.74095373 L24.7343413,1.57876228 L28.3086681,0.861143059 L28.3086681,5.74095373 L32.3119141,5.74095373 L32.3119141,9.75962134 L28.4516411,9.75962134 L28.4490915,17.3663855 C28.4490915,17.3663855 28.3086681,18.0840042 28.8805604,18.6580996 C29.4524526,19.232195 30.3102911,19.0886711 30.3102911,19.0886711 L32.4548871,19.0886711 L32.4548871,22.8202911 C32.4548871,22.8202911 27.4508296,22.9638149 27.0200295,22.8202911 C26.5892294,22.6767672 26.3070451,22.8202911 25.0202874,21.8156242 C23.7335298,20.8109573 23.7335298,18.9451473 23.7335298,18.9451473 L23.7335298,9.75962134 Z M65.7676127,9.75962134 L62.9081513,9.75962134 L62.9081513,5.74095373 L66.0568066,5.74095373 L66.7684242,1.57876228 L70.342751,0.861143059 L70.342751,5.74095373 L74.345997,5.74095373 L74.345997,9.75962134 L70.485724,9.75962134 L70.4831744,17.3663855 C70.4831744,17.3663855 70.342751,18.0840042 70.9146433,18.6580996 C71.4865355,19.232195 72.344374,19.0886711 72.344374,19.0886711 L74.48897,19.0886711 L74.48897,22.8202911 C74.48897,22.8202911 69.4849126,22.9638149 69.0541124,22.8202911 C68.6233123,22.6767672 68.341128,22.8202911 67.0543703,21.8156242 C65.7676127,20.8109573 65.7676127,18.9451473 65.7676127,18.9451473 L65.7676127,9.75962134 Z M36.3151601,11.0513359 L34.0275909,7.46323985 C34.0275909,7.46323985 38.3167831,5.16685836 42.177056,5.3103822 C46.0373289,5.45390604 47.6100327,6.74562063 47.6100327,6.74562063 C47.6100327,6.74562063 49.0397634,8.03733522 49.1827365,9.75962134 C49.3257095,11.4819075 49.1827365,18.0840042 49.1827365,18.0840042 C49.1827365,18.0840042 49.3257095,18.8016235 49.7546287,18.9451473 C50.183548,19.0886711 50.7554402,19.0886711 50.7554402,19.0886711 L50.7554402,23.1073388 C50.7554402,23.1073388 47.6100327,23.1073388 46.7521942,22.6767672 C45.8943558,22.2461957 45.6084097,21.2415288 45.6084097,21.2415288 C45.6084097,21.2415288 44.7388715,22.2940501 43.3208405,22.8202911 C42.0384882,23.2961808 39.6498847,23.2508626 39.1746215,23.2508626 C38.17381,23.2508626 33.0267794,23.5379103 33.0267794,17.9404804 C33.0267794,15.756336 33.9337834,14.2398466 35.3143486,13.3477174 C37.4718355,11.953537 40.4613791,11.912479 40.4613791,11.912479 L44.7505713,11.912479 C44.7505713,11.912479 45.1794905,9.32904981 41.4621906,9.47257365 C37.7448908,9.6160975 36.3151601,11.0513359 36.3151601,11.0513359 Z M44.7505713,15.3570512 C44.7505713,15.3570512 45.3224635,19.3757188 40.6043522,19.5192427 C38.1646005,19.5934594 37.5385925,18.5149846 37.4589446,17.6534327 C37.4031988,17.0504297 37.5851452,16.4038926 38.17381,15.9311466 C39.6035407,14.7829559 44.7505713,15.3570512 44.7505713,15.3570512 Z M52.328144,22.9638149 L52.328144,6.02800142 L55.9024708,5.88447757 L56.33139,7.60676369 C56.33139,7.60676369 57.0462554,6.74562063 58.7619322,6.17152526 C60.4776091,5.59742989 61.7643667,5.59742989 61.7643667,5.59742989 L61.7643667,10.046669 C61.7643667,10.046669 59.7627437,10.046669 58.4759861,10.7642882 C57.1892284,11.4819075 57.0462554,12.9171459 57.0462554,12.9171459 L57.0462554,22.9638149 L52.328144,22.9638149 Z M98.6514191,27.8436256 L98.6514191,6.17152526 L102.082773,5.88447757 L102.368719,7.17619216 L102.797638,7.17619216 C102.797638,7.17619216 104.227369,5.45390604 107.944669,5.45390604 C111.661969,5.45390604 116.094134,5.59742989 116.094134,14.2088605 C116.094134,22.8202911 111.804942,23.1073388 108.230615,23.2508626 C104.656288,23.3943864 103.36953,21.6721003 103.36953,21.6721003 L103.36953,27.8452942 L98.6514191,27.8436256 Z M103.226557,14.639432 C103.226557,12.3430505 103.36953,9.75962134 107.372776,9.75962134 C111.376022,9.75962134 111.376022,12.4865744 111.376022,14.3523843 C111.376022,16.2181943 111.233049,19.232195 107.515749,19.232195 C103.79845,19.232195 103.226557,16.9358135 103.226557,14.639432 Z M76.34762,0.574095373 L81.2087044,0.574095373 L81.2087044,15.0700035 C81.2087044,15.0700035 80.9227582,19.0886711 86.6416811,19.0886711 C92.3606039,19.0886711 92.0746578,14.9264797 92.0746578,14.9264797 L92.0746578,0.573391842 L96.6497961,0.573391842 L96.6497961,16.505242 C96.6497961,16.505242 97.2216883,23.3943864 86.6416811,23.3943864 C76.0616738,23.3943864 76.34762,16.3617181 76.34762,16.3617181 L76.34762,0.574095373 Z" id="Combined-Shape"></path>
                    </g>
                </g>
            </g>
        </g>
    </g>
</svg>