<?xml version="1.0" encoding="UTF-8" standalone="no"?>
<svg width="55px" height="55px" viewBox="0 0 55 55" version="1.1" xmlns="http://www.w3.org/2000/svg" xmlns:xlink="http://www.w3.org/1999/xlink">
    <!-- Generator: Sketch 3.6.1 (26313) - http://www.bohemiancoding.com/sketch -->
    <title>Desktop HD Copy 11</title>
    <desc>Created with Sketch.</desc>
    <defs></defs>
    <g id="Website" stroke="none" stroke-width="1" fill="none" fill-rule="evenodd">
        <g id="Desktop-HD-Copy-11" transform="translate(-162.000000, -1517.000000)">
            <g id="Group-26" transform="translate(-32.000000, 810.000000)">
                <rect id="Rectangle-69" x="0" y="0" width="1504" height="992"></rect>
                <g id="Group-21" transform="translate(197.000000, 314.000000)">
                    <g id="Group-12" transform="translate(5.000000, 397.000000)">
                        <g id="ic_cloud_done_black_24px" transform="translate(0.000000, 1.000000)">
                            <g id="Group">
                                <path d="M0,0 L40,0 L40,40 L0,40 L0,0 Z" id="Shape"></path>
                                <path d="M32.25,16.7333333 C31.1166667,10.9833333 26.0666667,6.66666667 20,6.66666667 C15.1833333,6.66666667 11,9.4 8.91666667,13.4 C3.9,13.9333333 0,18.1833333 0,23.3333333 C0,28.85 4.48333333,33.3333333 10,33.3333333 L31.6666667,33.3333333 C36.2666667,33.3333333 40,29.6 40,25 C40,20.6 36.5833333,17.0333333 32.25,16.7333333 L32.25,16.7333333 Z M16.6666667,28.3333333 L10.8333333,22.5 L13.1833333,20.15 L16.6666667,23.6166667 L25.3,15 L27.65,17.35 L16.6666667,28.3333333 L16.6666667,28.3333333 Z" id="Shape" fill="#7ED321"></path>
                            </g>
                        </g>
                    </g>
                </g>
            </g>
        </g>
    </g>
</svg>
