<?xml version="1.0" encoding="UTF-8" standalone="no"?>
<svg width="325px" height="103px" viewBox="0 0 325 103" version="1.1" xmlns="http://www.w3.org/2000/svg" xmlns:xlink="http://www.w3.org/1999/xlink">
    <!-- Generator: Sketch 3.6.1 (26313) - http://www.bohemiancoding.com/sketch -->
    <title>TechInAsia</title>
    <desc>Created with Sketch.</desc>
    <defs></defs>
    <g id="Website" stroke="none" stroke-width="1" fill="none" fill-rule="evenodd">
        <g id="Desktop-HD-Copy-3" transform="translate(-935.000000, -929.000000)" fill="#4A4A4A">
            <g id="Group-5" transform="translate(0.000000, 810.000000)">
                <g id="Group-30" transform="translate(153.000000, 119.000000)">
                    <path d="M782.771874,19.9885084 C781.507956,18.9165771 781.831142,18.0476052 783.48583,18.0476052 L840.612155,18.0476052 C842.27038,18.0476052 844.773326,18.7365255 846.194892,19.5817442 L856.450162,25.6792074 C857.875197,26.526489 858.361739,28.3734282 857.53436,29.808838 L854.055024,35.8451007 C852.951331,37.7598853 850.472169,38.4566327 848.541616,37.4142641 L839.356639,32.454994 C838.870299,32.1924036 838.031783,31.9882331 837.46962,31.9992436 L823.749652,32.26796 C821.544506,32.3111496 821.106911,33.5172365 822.783306,34.9714164 L831.432526,42.4741351 C832.687299,43.5625807 833.724226,45.7853291 833.748767,47.4521791 L834.071535,69.3757565 C834.071535,69.3757565 834.071535,73.7753123 835.906747,73.7753123 C837.374916,73.7753123 840.311255,68.2758676 840.311255,68.2758676 L879.319935,0.713021407 C879.871634,-0.242518576 880.770968,-0.232804459 881.316126,0.712984639 L928.138259,81.9441915 C928.689026,82.8997112 928.364472,83.2279079 927.410889,82.6758157 L874.9634,52.3104987 C873.056061,51.2062141 872.407284,48.7540795 873.50827,46.8439902 L876.48525,41.6792604 C877.588943,39.7644757 880.053822,39.0723231 881.990375,40.1331097 L887.222963,42.9993667 C888.68045,43.7977349 889.213543,43.27409 888.412584,41.827832 L882.261566,30.7211865 C881.188647,28.7838599 879.429104,28.7612876 878.326363,30.6797351 L837.764486,101.245566 C836.941197,102.677849 835.595514,102.679645 834.756888,101.246276 L820.260219,76.4687572 C819.982234,75.9936285 819.750198,75.1611341 819.742039,74.6150917 L819.434663,54.0440365 C819.409908,52.3873133 818.369184,50.1786537 817.101314,49.1033706 L782.771874,19.9885084 Z M926.769834,20.2473831 L926.769834,11.4406366 L959.766503,11.4406366 L959.766503,20.2550113 L948.400981,20.2550113 L948.400981,51.4109035 L938.135353,51.4109035 L938.135353,20.2452265 L926.769834,20.2473831 Z M961.96628,51.0442739 L961.96628,11.4482714 L992.029912,11.4482714 L992.029912,20.2473831 L972.231911,20.2473831 L972.231911,26.4800872 L990.563393,26.4800872 L990.563393,34.9125692 L972.231911,34.9125692 L972.231911,42.2451622 L992.396542,42.2451622 L992.396542,51.0442739 L961.96628,51.0442739 Z M1058.75651,51.0442739 L1058.75651,34.9125692 L1045.55784,34.9125692 L1045.58719,51.0447872 L1035.29221,51.0442739 L1035.29221,11.0816418 L1045.55784,11.0816418 L1045.55784,25.7468279 L1058.75651,25.7468279 L1058.75651,11.0816418 L1069.02214,11.0816418 L1069.02214,51.0459556 L1058.75651,51.0442739 Z M938.868612,93.5733136 L938.868612,55.8104594 L941.80165,55.8104594 L941.80165,93.5733136 L938.868612,93.5733136 Z M975.531578,93.5733136 L953.167169,61.3099042 L953.14604,93.5734903 L950.234132,93.5733136 L950.234132,55.8104594 L953.900428,55.8104594 L975.898207,87.7072391 L975.898207,55.8104594 L979.564504,55.8104594 L979.564504,93.5750933 L975.531578,93.5733136 Z M981.764282,94.6732025 L996.796097,54.7105704 L1005.96184,54.7105704 L1020.99365,94.6732025 L1010.36139,94.6732025 L1007.42836,86.2407205 L994.962949,86.2407205 L992.029912,94.6732025 L981.764282,94.6732025 Z M1001.53635,69.5888701 C1001.34819,69.0662028 1001.0453,69.0601474 1000.85496,69.5888701 L998.236681,76.8618657 C998.04852,77.384533 998.349585,77.8082385 998.898283,77.8082385 L1003.49302,77.8082385 C1004.04658,77.8082385 1004.34497,77.3905883 1004.15463,76.8618657 L1001.53635,69.5888701 Z M1067.55562,94.6732025 L1082.58744,54.7105704 L1091.75318,54.7105704 L1106.78499,94.6732025 L1096.15273,94.6732025 L1093.2197,86.2407205 L1080.75429,86.2407205 L1077.82125,94.6732025 L1067.55562,94.6732025 Z M1087.32769,69.5888701 C1087.13953,69.0662028 1086.83664,69.0601474 1086.6463,69.5888701 L1084.02802,76.8618657 C1083.83986,77.384533 1084.14092,77.8082385 1084.68962,77.8082385 L1089.28436,77.8082385 C1089.83792,77.8082385 1090.1363,77.3905883 1089.94596,76.8618657 L1087.32769,69.5888701 Z M1055.82347,54.7105704 L1066.82236,54.7105704 L1066.82236,95.0398322 L1055.82347,95.0398322 L1055.82347,54.7105704 Z M1019.52714,80.0080164 L1029.42614,80.0080164 C1029.42614,80.0080164 1029.12788,83.0910727 1030.89266,85.1408316 C1031.99958,86.4265112 1034.35627,87.1153011 1036.75873,86.9739798 C1042.99143,86.6073502 1043.35806,84.7742019 1043.35806,83.674313 C1043.35806,82.574424 1042.6248,79.6413868 1034.55895,78.5414978 C1026.4931,77.4416089 1020.99365,73.042053 1020.99365,66.4427193 C1020.99365,59.8433855 1025.39321,53.9773111 1036.75873,53.9773111 C1041.05984,53.9773111 1045.3575,55.1061326 1048.49088,58.0102373 C1051.62425,60.9143419 1051.79055,67.9092379 1051.79055,67.9092379 L1041.89154,67.9092379 C1041.89154,67.9092379 1042.09265,65.4622354 1040.79166,63.8763117 C1039.93008,62.8260401 1037.99884,62.4097931 1036.3921,62.4097931 C1032.35917,62.4097931 1030.89266,63.5096821 1030.89266,65.70946 C1030.89266,68.6424972 1036.75873,69.3757565 1041.15829,70.4756455 C1045.55784,71.5755344 1048.49088,72.6754234 1050.69066,75.241831 C1052.89043,77.8082385 1053.25706,80.229173 1053.25706,81.1079054 C1053.25706,83.3076833 1053.99032,95.4064619 1036.3921,95.4064619 C1018.79388,95.4064619 1019.52714,80.0080164 1019.52714,80.0080164 Z M1021.36028,26.1134575 L1031.25928,26.1134575 C1031.25928,26.1134575 1029.79277,10.3483824 1014.02769,10.3483824 C998.262616,10.3483824 994.59632,25.0135686 994.59632,29.0464947 C994.59632,33.0794209 994.59632,51.7775332 1013.29443,51.7775332 C1031.99254,51.7775332 1031.62591,34.5459395 1031.62591,34.5459395 L1021.72691,34.5459395 C1021.72691,34.5459395 1022.46017,42.9784215 1013.66106,42.9784215 C1004.86195,42.9784215 1004.86195,32.3461616 1004.86195,31.2462726 C1004.86195,30.1463837 1005.22858,19.1474941 1012.9278,19.1474941 C1020.62702,19.1474941 1021.36028,26.1134575 1021.36028,26.1134575 Z" id="TechInAsia"></path>
                </g>
            </g>
        </g>
    </g>
</svg>