<?xml version="1.0" encoding="UTF-8" standalone="no"?>
<svg width="55px" height="55px" viewBox="0 0 55 55" version="1.1" xmlns="http://www.w3.org/2000/svg" xmlns:xlink="http://www.w3.org/1999/xlink">
    <!-- Generator: Sketch 3.6.1 (26313) - http://www.bohemiancoding.com/sketch -->
    <title>Desktop HD Copy 11</title>
    <desc>Created with Sketch.</desc>
    <defs></defs>
    <g id="Website" stroke="none" stroke-width="1" fill="none" fill-rule="evenodd">
        <g id="Desktop-HD-Copy-11" transform="translate(-732.000000, -1516.000000)">
            <g id="Group-26" transform="translate(-32.000000, 810.000000)">
                <rect id="Rectangle-69" x="0" y="0" width="1504" height="992"></rect>
                <g id="Group-21" transform="translate(197.000000, 314.000000)">
                    <g id="Group-10" transform="translate(575.000000, 398.000000)">
                        <g id="ic_brush_black_24px-(1)">
                            <g id="Group">
                                <path d="M0,0 L40,0 L40,40 L0,40 L0,0 Z" id="Shape"></path>
                                <path d="M11.6666667,23.3333333 C8.9,23.3333333 6.66666667,25.5666667 6.66666667,28.3333333 C6.66666667,30.5166667 4.73333333,31.6666667 3.33333333,31.6666667 C4.86666667,33.7 7.48333333,35 10,35 C13.6833333,35 16.6666667,32.0166667 16.6666667,28.3333333 C16.6666667,25.5666667 14.4333333,23.3333333 11.6666667,23.3333333 L11.6666667,23.3333333 Z M34.5166667,7.71666667 L32.2833333,5.48333333 C31.6333333,4.83333333 30.5833333,4.83333333 29.9333333,5.48333333 L15,20.4166667 L19.5833333,25 L34.5166667,10.0666667 C35.1666667,9.41666667 35.1666667,8.36666667 34.5166667,7.71666667 L34.5166667,7.71666667 Z" id="Shape" fill="#F37E02"></path>
                            </g>
                        </g>
                    </g>
                </g>
            </g>
        </g>
    </g>
</svg>
