<svg height="76" viewBox="0 0 76 76" width="76" xmlns="http://www.w3.org/2000/svg"><g fill="none" fill-rule="evenodd"><rect fill="#fff" height="76" rx="16" width="76"/><g transform="translate(11.377246 11.832335)"><path d="m18.0215569 49.1497006h18.5676647c.904821 0 1.6383233.611252 1.6383233 1.3652695s-.7335023 1.3652694-1.6383233 1.3652694h-18.5676647c-.904821 0-1.6383234-.6112519-1.6383234-1.3652694s.7335024-1.3652695 1.6383234-1.3652695z" fill="#a3b0bb"/><path d="m8.84965205 43.2335329h35.54620485c.8661012 0 1.568215.611252 1.568215 1.3652695s-.7021138 1.3652695-1.568215 1.3652695h-35.54620485c-.86610119 0-1.56821492-.611252-1.56821492-1.3652695s.70211373-1.3652695 1.56821492-1.3652695z" fill="#a3b0bb"/><path d="m44.4787662 6.59698062-17.5565094 17.55650938-4.6660579-4.6660579c-1.1552036-1.1552036-3.0281587-1.1552036-4.1833623 0s-1.1552036 3.0281586 0 4.1833622l8.8494202 8.8494202 21.5679645-21.5679645c3.2752257 4.4506523 5.2103775 9.9483614 5.2103775 15.8980494 0 .0438023-.000094.087561-.0002818.131276-.0205893 4.2947962-1.0494863 8.3512745-2.8621349 11.9448332-.0242359.0460403-.0486208.0920046-.0731543.1378928-.475146.8887258-1.354593 1.4434873-2.3623614 1.4431352-8.488266-.0029617-15.8240849-.0044426-22.0074568-.0044426-6.1485125 0-13.1741633.0097505-21.07695233.0292516-.98389171.0024278-1.85366707-.5244148-2.33810255-1.3752046-1.88604299-3.6507705-2.95914476-7.7896998-2.97984944-12.1773321-.00021424-.0430859-.00030528-.0862268-.00030528-.1294095 0-14.8290109 12.0212885-26.8502994 26.8502994-26.8502994 6.7465122 0 12.9118742 2.48819993 17.6284668 6.59698062z" fill="#ff355d"/></g></g></svg>