<svg height="50" viewBox="0 0 50 50" width="50" xmlns="http://www.w3.org/2000/svg"><g fill="none" fill-rule="evenodd" transform="translate(3.5 6)"><g transform="matrix(.70710678 .70710678 -.70710678 .70710678 27.606602 4.736544)"><path d="m2.25 0h5.5c.69035594 0 1.25.56710598 1.25 1.26666667v33.46666663c0 .6995607-.55964406 1.2666667-1.25 1.2666667h-5.5c-.69035594 0-1.25-.567106-1.25-1.2666667v-33.46666663c0-.69956069.55964406-1.26666667 1.25-1.26666667z" stroke="#e8b600" stroke-width="3"/><path d="m.86897118 22.5714286h7.78923697l.20813043 11.4198883c.025495 1.3988829-1.07293451 2.5538448-2.45341098 2.5796798-.01538595.0002879-.0307742.0004319-.04616278.0004319h-2.78838436c-1.36271744 0-2.47441103-1.1059035-2.49957376-2.4865551z" fill="#e8b600"/></g><g fill="#e8b600"><path d="m36.2733685 27.8270019-4.2733685 2.1729981 2.1729981-4.2733685c.0724154-.1424106.0724154-.3108524 0-.453263l-2.1729981-4.2733685 4.2733685 2.1729981c.1424106.0724154.3108524.0724154.453263 0l4.2733685-2.1729981-2.1729981 4.2733685c-.0724154.1424106-.0724154.3108524 0 .453263l2.1729981 4.2733685-4.2733685-2.1729981c-.1424106-.0724154-.3108524-.0724154-.453263 0z" transform="matrix(.70710678 .70710678 -.70710678 .70710678 28.721825 -18.34062)"/><path d="m25.7733685 35.0982462-1.7733685.9017538.9017538-1.7733685c.0724155-.1424106.0724155-.3108524 0-.453263l-.9017538-1.7733685 1.7733685.9017538c.1424106.0724155.3108524.0724155.453263 0l1.7733685-.9017538-.9017538 1.7733685c-.0724155.1424106-.0724155.3108524 0 .453263l.9017538 1.7733685-1.7733685-.9017538c-.1424106-.0724155-.3108524-.0724155-.453263 0z" transform="matrix(.70710678 .70710678 -.70710678 .70710678 31.656854 -8.426407)"/><path d="m8.78875965 11.3017266-5.78875965 2.6982734 2.91644114-5.25745616c.08368966-.15086699.08368966-.33422069 0-.48508768l-2.91644114-5.25745616 5.78875965 2.6982734c.13391044.06241872.28857026.06241872.4224807 0l5.78875965-2.6982734-2.9164411 5.25745616c-.0836897.15086699-.0836897.33422069 0 .48508768l2.9164411 5.25745616-5.78875965-2.6982734c-.13391044-.0624187-.28857026-.0624187-.4224807 0z" transform="matrix(.70710678 .70710678 -.70710678 .70710678 8.646447 -3.874369)"/></g></g></svg>