<svg height="63" viewBox="0 0 319 63" width="319" xmlns="http://www.w3.org/2000/svg" xmlns:xlink="http://www.w3.org/1999/xlink"><defs><linearGradient id="a" x1="28.535354%" x2="78.409091%" y1="-6.776175%" y2="102.55369%"><stop offset="0" stop-color="#ff9500"/><stop offset=".07" stop-color="#ff8700"/><stop offset=".17" stop-color="#ff7e00"/><stop offset=".3" stop-color="#ff7b00"/><stop offset=".74" stop-color="#f70"/><stop offset="1" stop-color="#df3200"/></linearGradient><path id="b" d="m47.6902145 26.7877912c-.2510126-4.015555-2.4118557-7.6673799-5.8108007-9.8202531l-27.8918433-16.21213401c-1.1771385-.82714256-2.7072108-.96019233-4.00945253-.34864804l-8.193229 4.70674857c1.31247784-.59473509 2.84315696-.4394488 4.00945249.40675605l27.85521734 16.21269783c2.9312907 1.7398 5.5960524 5.6882055 5.847065 9.7037606l-.0114379 2.9481372.0059406 2.0912712 8.315304-4.8072637v-1.9756722z"/><path id="c" d="m39.5299621 34.5273423.0283731-2.9228676c-.1699794-4.165295-2.4019252-7.8017228-5.8008702-9.954596l-27.96312354-16.12961803c-1.16629553-.84620485-2.69697465-1.00149114-4.00945249-.40675605-1.17872205.82880771-1.82205096 2.2263843-1.6851322 3.66080444v4.93918064l39.41043283 22.7503132z"/><linearGradient id="d" x1="50%" x2="50%" y1="0%" y2="100%"><stop offset="0" stop-color="#b4ec51"/><stop offset="1" stop-color="#429321"/></linearGradient><linearGradient id="e" x1="18.730235%" x2="110.940621%" y1="1.365854%" y2="87.902439%"><stop offset="0" stop-color="#45ddff"/><stop offset=".35" stop-color="#6dc8fb"/><stop offset=".38" stop-color="#5ec0f7"/><stop offset=".43" stop-color="#41b1ee"/><stop offset=".5" stop-color="#29a4e7"/><stop offset=".57" stop-color="#179ae2"/><stop offset=".66" stop-color="#0a93de"/><stop offset=".77" stop-color="#028fdc"/><stop offset="1" stop-color="#008edb"/></linearGradient><linearGradient id="f" x1="13.090855%" x2="115.947573%" y1="1.117886%" y2="88.211382%"><stop offset="0" stop-color="#f0f7f7"/><stop offset=".26" stop-color="#ecf4f6"/><stop offset=".53" stop-color="#dfedf3"/><stop offset=".81" stop-color="#c9e1ef"/><stop offset="1" stop-color="#b7d6eb"/></linearGradient><linearGradient id="g" x1="-83.076923%" x2="179.230769%" y1="13.70937%" y2="84.736894%"><stop offset="0" stop-color="#006bbf"/><stop offset=".07" stop-color="#006ec2"/><stop offset=".3" stop-color="#0070c5"/><stop offset=".55" stop-color="#0060b5"/><stop offset=".74" stop-color="#005aaf"/><stop offset="1" stop-color="#003387"/></linearGradient></defs><g fill="none" fill-rule="evenodd" transform="translate(-1 -1)"><text fill="#b6cad5" font-family="SFProDisplay-Heavy, SF Pro Display" font-size="28" font-weight="600"><tspan x="85.53033" y="42.482422">+</tspan></text><text fill="#b6cad5" font-family="SFProDisplay-Heavy, SF Pro Display" font-size="28" font-weight="600"><tspan x="226.391649" y="42.482422">+</tspan></text><g fill-rule="nonzero" transform="translate(.978576 .982422)"><path d="m39.4969855 36.4337204v21.6742866c.1369188 1.4344202-.5064101 2.8319968-1.6851322 3.6608045l8.193229-4.7648566c1.1787221-.8288077 1.822051-2.2263843 1.6851322-3.6608044v-21.6742867z" fill="#c6c6c6"/><use fill="url(#a)" fill-rule="evenodd" xlink:href="#b"/><use fill="#fe2c55" fill-rule="evenodd" xlink:href="#b"/><use fill="#fe2c55" fill-rule="evenodd" xlink:href="#b"/><path d="m33.8024008 21.6742866-28.00805934-16.15402593c-1.16629553-.84620485-2.69697465-1.00149114-4.00945249-.40675605-1.17872205.82880771-1.82205096 2.2263843-1.6851322 3.66080444v26.72968324c.2510126 4.0155551 2.41185574 7.66738 5.8108007 9.8202532l27.89184333 16.2121339c1.1662956.8462049 2.6969747 1.0014912 4.0094525.4067561 1.1787221-.8288077 1.822051-2.2263843 1.6851322-3.6608044v-26.7877913c-.2248642-3.9938369-2.3399639-7.6413046-5.6945847-9.8202532z" fill="#e8e8e8"/><use fill="#ff6400" fill-rule="evenodd" xlink:href="#c"/><use fill="#fe2c55" fill-rule="evenodd" xlink:href="#c"/><use fill="#fe2c55" fill-rule="evenodd" xlink:href="#c"/><g fill="#fff"><path d="m5.73623345 14.9918658-3.95134448-2.2662123v-1.1621601l3.95134448 2.2662123z"/><path d="m11.0821701 18.0715902-3.95134448-2.2662123v-1.1621601l3.95134448 2.2662122z"/><path d="m16.4281067 21.1513146-3.9513444-2.2662123v-1.1621602l3.9513444 2.2662123z"/><path d="m21.7740434 24.2310389-3.9513445-2.2662122v-1.1621602l3.9513445 2.2662123z"/><path d="m27.11998 27.3688713-3.9513444-2.2662123v-1.1621601l3.9513444 2.2662123z"/><path d="m32.4659167 30.4485957-3.9513445-2.2662123v-1.1621601l3.9513445 2.2662122z"/><path d="m37.8118533 33.5283201-3.9513444-2.2662123v-1.1621602l3.9513444 2.2662123z"/></g><path d="m14.6267585 29.9256236c-.7554041-.406756-1.1621601 0-1.1621601.9878361v1.8013483l-2.1499963-1.2202682v-1.6270242c0-2.6729683 1.1621602-3.5445884 3.4283724-2.2662123 2.220192 1.2637819 3.5445131 3.6655168 3.4283725 6.2175568 0 5.5202607-4.9391806 4.5324245-4.5324246 7.7283649l4.2999925 2.4986443v2.4405363l-6.3918807-3.8932364v-1.9175643c0-4.9391806 4.5324245-3.1378324 4.5324245-7.9607969 0-1.6851322-.4648641-2.3243203-1.4527002-2.7891844z" fill="#4f4f4f"/><path d="m21.8321514 43.1161412v1.5689162c-.0915966.9337532.3601996 1.8373457 1.1621601 2.3243203.6972961.406756 1.1621602 0 1.1621602-.9297281v-3.7189125c.0915966-.9337532-.3601996-1.8373456-1.1621602-2.3243203-.7554041-.406756-1.1621601 0-1.1621601.9878362v.522972l-2.1499963-1.2202681.4067561-9.4716052 5.8108007 3.4864805v2.2662122l-3.9513445-2.2662122v3.8932364c.4067561-.58108 1.1040521-.58108 1.9756723 0 1.63902 1.214416 2.5212104 3.1993446 2.3243202 5.2297207v3.7189124c0 2.6729683-1.1621601 3.5445884-3.4283724 2.2662123-2.2201919-1.2637819-3.544513-3.6655167-3.4283724-6.2175568v-1.3364841z" fill="#4f4f4f"/></g><path d="m37.2670497 59.8395475c9.0188096 0 16.3299993-12.4156416 16.3299993-27.7311116 0-15.3154701-7.3111897-27.73111171-16.3299993-27.73111171-1.9678582 0-5.1569417.03813414-9.5672505.11440242-4.5084992 11.54258349-6.7627488 20.74815319-6.7627488 27.61670929 0 8.4724791 2.2603662 17.7372066 6.7810984 27.7941822 5.3425768-.042047 8.5255438-.0630706 9.5489009-.0630706z" fill="url(#d)" transform="matrix(.8660254 -.5 .5 .8660254 120.762748 20.952745)"/><ellipse cx="29.038414" cy="36.831653" fill="#8fcf41" rx="16.329999" ry="27.731112" transform="matrix(.8660254 -.5 .5 .8660254 117.31448 17.466993)"/><g fill-rule="nonzero"><path d="m42.2120134 32.7323224c-.9016113-1.2724757-3.5409742-2.0232656-5.3012435-1.1304037l-10.1386308 6.5241493-3.4276718-5.4642524c-1.4763549-2.5669778-3.5084318-2.6386397-5.1300125-1.7401348s-2.3499867 2.4997281-.8736318 5.066706l5.4855561 9.0662873c1.4763549 2.5669778 3.3150157 1.7431782 5.075285.8503163l14.0073869-7.8044404c1.4763549-.8928618 1.2045737-4.095752.3029624-5.3682276z" fill="#fffbeb" transform="matrix(.9945219 -.10452846 .10452846 .9945219 127.969257 1.334037)"/><g transform="translate(281.701215 1.482422)"><path d="m33.4383146 12.42291-20.3499097-11.77218615-7.63121608 4.37759685 20.40906638 11.8313428c2.8336542 1.8593504 4.6129249 4.9565995 4.7916938 8.3410967v33.0094465c.1136238 1.2059628-.4283359 2.3802089-1.4197611 3.0761491l7.6312161-4.3775968c.9914252-.6959403 1.5333849-1.8701864 1.4197611-3.0761492v-33.0686032c-.1921454-3.3954806-1.9946567-6.4949208-4.8508505-8.3410966z" fill="url(#e)"/><path d="m13.0884049.65072385c-.9646041-.69369868-2.2231043-.828538-3.31277595-.35494028l-7.69037283 4.43675356c1.10605429-.49647562 2.39349644-.36095539 3.3719327.35494028l2.66205214 1.53807457 7.57205944-4.43675356z" fill="#0075d6"/><path d="m32.6692773 12.837007-17.6878575-10.23411158c-1.2818435.30298536-2.5159631.78070906-3.6677163 1.41976114-.9332046.4524533-1.75986043 1.09764812-2.42542526 1.89301485l17.74701426 10.23411149c2.8336542 1.8593504 4.6129249 4.9565995 4.7916938 8.3410967v33.2460733c.1136238 1.2059629-.4283359 2.380209-1.4197611 3.0761492l5.9156714-3.4902461c.9914252-.6959403 1.5333849-1.8701864 1.4197611-3.0761492v-33.0686032c-.1518011-3.3627603-1.8847345-6.4557174-4.6733804-8.3410966z" fill="url(#f)"/><path d="m30.657949 58.2102067c.2055567 1.2161824-.3651568 2.4322501-1.4319991 3.0512821-1.0668424.619032-2.4058258.51106-3.3596947-.2709166l-20.40906638-11.8313428c-2.83365418-1.8593504-4.61292492-4.9565994-4.79169384-8.3410967v-33.00944644c-.1136238-1.20596282.42833594-2.38020893 1.41976114-3.07614913 1.10605429-.49647562 2.39349644-.36095539 3.3719327.35494028l20.40906638 11.83134279c2.8336542 1.8593504 4.6129249 4.9565995 4.7916938 8.3410967z" fill="#00a6ff"/><path d="m5.45718882 5.0283207c-.98949057-.69646383-2.27629984-.80934183-3.3719327-.29578357-.9914252.6959402-1.53338494 1.87018631-1.41976114 3.07614913v33.06860314c.17876892 3.3844973 1.95803966 6.4817463 4.79169384 8.3410967l2.66205214 1.5380746v-44.19006544z" fill="#0067bc"/><path d="m22.7901061 15.1441188c-.1287995-.0898438-.2973375-.0991001-.4352012-.0239017s-.221328.2219105-.2155227.378842v44.1309087c.0227874.4577255.2651216.8763028.6507239 1.1239776.1287994.0898438.2973374.0991001.4352011.0239017s.221328-.2219105.2155227-.378842v-44.071752c-.003485-.4788855-.248157-.9237438-.6507238-1.1831343z" fill="#0059ad"/><path d="m28.8832476 11.8313428c-.1464252-.0845386-.3268285-.0845386-.4732537 0l-5.3241043 3.0761491-.7690373.414097c.1464252-.0845386.3268285-.0845386.4732538 0 .3856022.2476749.6279364.6662521.6507238 1.1239776v44.1309087c.0635937.1307077.0635937.2833893 0 .414097l.7690373-.414097h.4732537v-44.7224758l5.3241043-3.0761492c-.1695573-.4999266-.6024883-.8645-1.1239776-.9465074z" fill="url(#g)"/></g></g></g></svg>