<svg height="225" viewBox="0 0 401 225" width="401" xmlns="http://www.w3.org/2000/svg"><path d="m221.665131 62.8668301c7.409634-2.9792332 15.502072-4.6187832 23.977447-4.6187832 34.400091 0 62.491638 27.0100848 64.223911 60.9795231 5.146253-1.654422 10.633687-2.547882 16.3298-2.547882 25.539141 0 46.883262 17.961016 52.089912 41.940599 13.21428 4.675625 22.680596 17.280579 22.680596 32.09651 0 18.798176-15.238933 34.037109-34.037109 34.037109-7.14864 0-13.782557-2.203788-19.259428-5.969041-6.569445 2.894928-13.834003 4.502244-21.473971 4.502244-25.894748 0-47.476839-18.464677-52.297986-42.945742-8.528616 4.178196-18.11824 6.523867-28.255725 6.523867-9.277026 0-18.095247-1.964374-26.061406-5.499865-11.518586 17.343105-31.22849 28.775256-53.608516 28.775256-23.172162 0-43.481841-12.25575-54.800579-30.638794-11.72103 12.377102-28.3095716 20.097778-46.7013739 20.097778-35.5166556 0-64.30859372-28.791938-64.30859372-64.308593 0-31.460011 22.59042962-57.6437432 52.43472652-63.214636-.2498714-2.3036422-.3780859-4.643788-.3780859-7.01388 0-35.5166556 28.7919381-64.30859375 64.308594-64.30859375 27.542416 0 51.040805 17.31453505 60.204169 41.65260615 2.642787-.5153865 5.373321-.7854186 8.166925-.7854186 15.716442 0 29.436715 8.546621 36.766691 21.2457368z" fill="#fff" fill-rule="evenodd"/></svg>