<?xml version="1.0" encoding="UTF-8" standalone="no"?>
<svg width="190px" height="55px" viewBox="0 0 190 55" version="1.1" xmlns="http://www.w3.org/2000/svg" xmlns:xlink="http://www.w3.org/1999/xlink" xmlns:sketch="http://www.bohemiancoding.com/sketch/ns">
    <!-- Generator: Sketch 3.3.3 (12072) - http://www.bohemiancoding.com/sketch -->
    <title>appstore2</title>
    <desc>Created with Sketch.</desc>
    <defs></defs>
    <g id="Page-1" stroke="none" stroke-width="1" fill="none" fill-rule="evenodd" sketch:type="MSPage">
        <g id="appstore2" sketch:type="MSLayerGroup" fill="#FFFFFF">
            <g id="Group" sketch:type="MSShapeGroup">
                <path d="M190,49.40421 C190,52.4450881 187.55404,54.9082569 184.528699,54.9082569 L5.47843656,54.9082569 C2.45452224,54.9082569 0,52.4450881 0,49.40421 L0,5.51123234 C0,2.4717913 2.45452224,0 5.47843656,0 L184.527272,0 C187.55404,0 189.998573,2.4717913 189.998573,5.51123234 L190,49.40421 L190,49.40421 Z" id="Shape" fill-opacity="0.1"></path>
                <g transform="translate(10.935252, 8.236239)" id="Shape">
                    <path d="M24.7792806,18.9213853 C24.7396403,14.4971525 28.3865468,12.3447489 28.5533094,12.2445413 C26.4879137,9.22046904 23.2866187,8.8072844 22.1616547,8.77433945 C19.4729496,8.49018922 16.8648921,10.3900149 15.4952518,10.3900149 C14.0982734,10.3900149 11.9891367,8.80179358 9.71597122,8.8484656 C6.79079137,8.89376491 4.0542446,10.5945482 2.55338129,13.2356353 C-0.544028777,18.6207626 1.76604317,26.5344151 4.73359712,30.8872672 C6.21805755,33.0190803 7.95266187,35.3993532 10.2230935,35.3156181 C12.4443165,35.2236468 13.2740288,33.8934943 15.9545324,33.8934943 C18.6104317,33.8934943 19.3895683,35.3156181 21.7051079,35.2620826 C24.0889928,35.2236468 25.5898561,33.1206606 27.0223741,30.9696296 C28.7378417,28.5262122 29.4267626,26.1198578 29.4541007,25.9963142 C29.3980576,25.9770963 24.8243885,24.2241502 24.7792806,18.9213853 L24.7792806,18.9213853 Z"></path>
                    <path d="M20.4051799,5.91087385 C21.5998561,4.41050573 22.4172662,2.36929128 22.1903597,0.297877294 C20.461223,0.374748853 18.298777,1.49899541 17.0535252,2.96641858 C15.9517986,4.25950803 14.9676259,6.37896674 15.2218705,8.37213647 C17.1642446,8.51764335 19.1585612,7.38790596 20.4051799,5.91087385 L20.4051799,5.91087385 Z"></path>
                </g>
            </g>
            <text id="Get-the-app" sketch:type="MSTextLayer" font-family="Gotham Light" font-size="21.8705036" font-weight="normal">
                <tspan x="50.5755396" y="35.2178899">Get the app</tspan>
            </text>
        </g>
    </g>
</svg>