<?xml version="1.0" encoding="UTF-8" standalone="no"?>
<svg width="18px" height="21px" viewBox="0 0 18 21" version="1.1" xmlns="http://www.w3.org/2000/svg" xmlns:xlink="http://www.w3.org/1999/xlink" xmlns:sketch="http://www.bohemiancoding.com/sketch/ns">
    <!-- Generator: Sketch 3.4.2 (15855) - http://www.bohemiancoding.com/sketch -->
    <title>bell-icon</title>
    <desc>Created with Sketch.</desc>
    <defs></defs>
    <g id="Website" stroke="none" stroke-width="1" fill="none" fill-rule="evenodd" sketch:type="MSPage">
        <g id="Desktop-HD" sketch:type="MSArtboardGroup" transform="translate(-228.000000, -292.000000)">
            <g id="bell-icon" sketch:type="MSLayerGroup" transform="translate(225.000000, 290.000000)">
                <g id="Group" sketch:type="MSShapeGroup">
                    <path d="M0,0 L24,0 L24,24 L0,24 L0,0 L0,0 Z" id="Shape"></path>
                    <path d="M10.01,21.01 C10.01,22.11 10.9,23 12,23 C13.1,23 13.99,22.11 13.99,21.01 L10.01,21.01 L10.01,21.01 Z M18.88,16.82 L18.88,11 C18.88,7.75 16.63,5.03 13.59,4.31 L13.59,3.59 C13.59,2.71 12.88,2 12,2 C11.12,2 10.41,2.71 10.41,3.59 L10.41,4.31 C7.37,5.03 5.12,7.75 5.12,11 L5.12,16.82 L3,18.94 L3,20 L21,20 L21,18.94 L18.88,16.82 L18.88,16.82 Z" id="Shape" fill="#FFFFFF"></path>
                </g>
            </g>
        </g>
    </g>
</svg>