<?xml version="1.0" encoding="UTF-8" standalone="no"?>
<svg width="280px" height="49px" viewBox="0 0 280 49" version="1.1" xmlns="http://www.w3.org/2000/svg" xmlns:xlink="http://www.w3.org/1999/xlink">
    <!-- Generator: Sketch 3.6.1 (26313) - http://www.bohemiancoding.com/sketch -->
    <title>SignUpButton</title>
    <desc>Created with Sketch.</desc>
    <defs></defs>
    <g id="Website" stroke="none" stroke-width="1" fill="none" fill-rule="evenodd">
        <g id="Desktop-HD" transform="translate(-740.000000, -537.000000)" fill="#FFFFFF">
            <g id="SignUpButton" transform="translate(740.000000, 537.000000)">
                <rect id="Rectangle-5" fill-opacity="0.137992527" x="0" y="0" width="280" height="49" rx="3"></rect>
                <text id="Get-Sorted-now" font-family="Comfortaa-Light, Comfortaa" font-size="26" font-weight="300">
                    <tspan x="61" y="35">Get Sorted now</tspan>
                </text>
                <path d="M35.3738286,13.5416667 C39.2921429,13.5416667 41.7977429,17.3283333 41.7977429,17.3283333 C41.7977429,17.3283333 37.9755429,19.4 37.9755429,23.8991667 C37.9755429,29.2391667 42.7771143,30.7925 42.7771143,30.7925 C42.7771143,30.7925 38.9872286,39.7741667 34.7316857,39.7741667 C32.3387714,39.7741667 32.1788571,38.3991667 28.9988,38.3991667 C26.2371714,38.3991667 25.3058571,39.7741667 23.2021143,39.7741667 C19.1868571,39.7741667 14,31.0191667 14,23.8991667 C14,16.5033333 19.2514857,13.5416667 22.5434,13.5416667 C25.4342857,13.5416667 26.6382,15.2408333 28.9664857,15.2408333 C30.9260571,15.2408333 32.4680286,13.5416667 35.3738286,13.5416667 L35.3738286,13.5416667 Z M34.7002,6 C35.2777143,9.625 31.9858,14.1083333 28.0517429,13.9625 C27.4734,9.35 31.7132,6.24333333 34.7002,6 L34.7002,6 Z" id="Imported-Layers"></path>
            </g>
        </g>
    </g>
</svg>