<?xml version="1.0" encoding="UTF-8" standalone="no"?>
<svg width="280px" height="49px" viewBox="0 0 280 49" version="1.1" xmlns="http://www.w3.org/2000/svg" xmlns:xlink="http://www.w3.org/1999/xlink">
    <!-- Generator: Sketch 3.6.1 (26313) - http://www.bohemiancoding.com/sketch -->
    <title>SignUpButton Copy</title>
    <desc>Created with Sketch.</desc>
    <defs></defs>
    <g id="Website" stroke="none" stroke-width="1" fill="none" fill-rule="evenodd">
        <g id="Desktop-HD" transform="translate(-740.000000, -645.000000)" fill="#FFFFFF">
            <g id="SignUpButton-Copy" transform="translate(740.000000, 645.000000)">
                <rect id="Rectangle-5" fill-opacity="0.137992527" x="0" y="0" width="280" height="49" rx="3"></rect>
                <path d="M78.7607422,32.2197266 C78.7607422,32.4482433 78.6972663,32.6217442 78.5703125,32.7402344 C77.6223911,33.4765662 76.6152397,34.0372702 75.5488281,34.4223633 C74.4824165,34.8074564 73.3567768,35 72.171875,35 C70.7923108,35 69.4974019,34.7418646 68.2871094,34.2255859 C67.0768169,33.7093073 65.9765675,32.9772183 64.9863281,32.0292969 C64.0384067,31.0390575 63.3063177,29.9388081 62.7900391,28.7285156 C62.2737604,27.5182231 62.015625,26.2233142 62.015625,24.84375 C62.015625,22.0423037 63.0058495,19.6513771 64.9863281,17.6708984 C66.9752704,15.6819562 69.3704287,14.6875 72.171875,14.6875 C74.5839964,14.6875 76.7294828,15.4576746 78.6083984,16.9980469 C78.7607429,17.1503914 78.8369141,17.3365874 78.8369141,17.5566406 C78.8369141,17.7682302 78.7607429,17.9501946 78.6083984,18.1025391 C78.4560539,18.2548836 78.2740896,18.3310547 78.0625,18.3310547 C77.8424468,18.3310547 77.6266287,18.2294932 77.4150391,18.0263672 C75.950839,16.8414654 74.2031352,16.2490234 72.171875,16.2490234 C69.8020715,16.2490234 67.7750735,17.0911374 66.0908203,18.7753906 C64.4150307,20.4511803 63.5771484,22.4739465 63.5771484,24.84375 C63.5771484,27.2220171 64.4150307,29.2490151 66.0908203,30.9248047 C67.7666099,32.6005943 69.7936079,33.4384766 72.171875,33.4384766 C74.0338635,33.4384766 75.709628,32.901047 77.1992188,31.8261719 L77.1992188,26.671875 L72.8193359,26.671875 C72.5992828,26.671875 72.4152026,26.5957039 72.2670898,26.4433594 C72.1189771,26.2910149 72.0449219,26.1048188 72.0449219,25.8847656 C72.0449219,25.6647124 72.1189771,25.4806323 72.2670898,25.3325195 C72.4152026,25.1844068 72.5992828,25.1103516 72.8193359,25.1103516 L77.9863281,25.1103516 C78.1894541,25.1103516 78.3756502,25.1865227 78.5449219,25.3388672 C78.6888028,25.4996753 78.7607422,25.6816396 78.7607422,25.8847656 L78.7607422,32.2197266 Z M93.6650391,27.1035156 C93.4280587,25.8424416 92.8990926,24.8014364 92.078125,23.9804688 C90.9947863,22.89713 89.6914139,22.3554688 88.1679688,22.3554688 C86.6445236,22.3554688 85.3411512,22.89713 84.2578125,23.9804688 C83.4453084,24.7929728 82.9121106,25.833978 82.6582031,27.1035156 L93.6650391,27.1035156 Z M92.2177734,31.9404297 C92.4378266,31.9404297 92.6240227,32.0187167 92.7763672,32.175293 C92.9287117,32.3318693 93.0048828,32.5201812 93.0048828,32.7402344 C93.0048828,32.9602876 92.9371752,33.1422519 92.8017578,33.2861328 C91.4814387,34.4287167 89.9368578,35 88.1679688,35 C86.2044173,35 84.5286528,34.3059965 83.140625,32.9179688 C81.7525972,31.529941 81.0585938,29.8541765 81.0585938,27.890625 C81.0585938,25.9270735 81.7525972,24.251309 83.140625,22.8632812 C84.5286528,21.4752535 86.2044173,20.78125 88.1679688,20.78125 C90.1315202,20.78125 91.8072847,21.4752535 93.1953125,22.8632812 C94.5833403,24.251309 95.2773438,25.9270735 95.2773438,27.890625 C95.2773438,28.1106782 95.2011726,28.2968742 95.0488281,28.4492188 C94.8964836,28.6015633 94.7102876,28.6777344 94.4902344,28.6777344 L82.6582031,28.6777344 C82.9121106,29.947272 83.4453084,30.9882772 84.2578125,31.8007812 C85.3411512,32.88412 86.6445236,33.4257812 88.1679688,33.4257812 C88.8619826,33.4257812 89.5052054,33.3136404 90.0976562,33.0893555 C90.6901071,32.8650705 91.2317684,32.5413433 91.7226562,32.1181641 C91.8665372,31.9996739 92.0315746,31.9404297 92.2177734,31.9404297 L92.2177734,31.9404297 Z M104.46875,33.4257812 C104.688803,33.4257812 104.877115,33.5019524 105.033691,33.6542969 C105.190268,33.8066414 105.268555,33.9928374 105.268555,34.2128906 C105.268555,34.4329438 105.190268,34.6191399 105.033691,34.7714844 C104.877115,34.9238289 104.688803,35 104.46875,35 C101.134098,35 99.4667969,33.332699 99.4667969,29.9980469 L99.4667969,22.3554688 L98.1591797,22.3554688 C97.9391265,22.3554688 97.7508146,22.2792976 97.5942383,22.1269531 C97.437662,21.9746086 97.359375,21.7884126 97.359375,21.5683594 C97.359375,21.3483062 97.437662,21.1621101 97.5942383,21.0097656 C97.7508146,20.8574211 97.9391265,20.78125 98.1591797,20.78125 L99.4667969,20.78125 L99.4667969,15.4619141 C99.4667969,15.2418609 99.542968,15.0556648 99.6953125,14.9033203 C99.847657,14.7509758 100.033853,14.6748047 100.253906,14.6748047 C100.473959,14.6748047 100.662271,14.7509758 100.818848,14.9033203 C100.975424,15.0556648 101.053711,15.2418609 101.053711,15.4619141 L101.053711,20.78125 L103.427734,20.78125 C103.647788,20.78125 103.836099,20.8574211 103.992676,21.0097656 C104.149252,21.1621101 104.227539,21.3483062 104.227539,21.5683594 C104.227539,21.7884126 104.149252,21.9746086 103.992676,22.1269531 C103.836099,22.2792976 103.647788,22.3554688 103.427734,22.3554688 L101.053711,22.3554688 L101.053711,29.9980469 C101.053711,32.2832146 102.192046,33.4257812 104.46875,33.4257812 L104.46875,33.4257812 Z M114.574219,31.7880859 C114.574219,31.5680328 114.648274,31.3818367 114.796387,31.2294922 C114.944499,31.0771477 115.12858,31.0009766 115.348633,31.0009766 C115.627931,31.0009766 115.852213,31.119465 116.021484,31.3564453 C116.131511,31.5172534 116.258463,31.6865225 116.402344,31.8642578 C116.783205,32.3043642 117.244463,32.6704087 117.786133,32.9624023 C118.327802,33.254396 119.004879,33.4130858 119.817383,33.4384766 C120.875331,33.4384766 121.819006,33.0872431 122.648438,32.3847656 C123.097007,31.9954408 123.4694,31.5278348 123.765625,30.9819336 C124.06185,30.4360324 124.209961,29.7653035 124.209961,28.9697266 C124.209961,27.903315 123.858727,26.9638713 123.15625,26.1513672 C122.766925,25.6943337 122.316246,25.3346367 121.804199,25.0722656 C121.292152,24.8098945 120.739912,24.6533206 120.147461,24.6025391 C119.487301,24.5348304 118.867353,24.3528661 118.287598,24.0566406 C117.707842,23.7604152 117.202151,23.3626327 116.770508,22.8632812 C116.39811,22.4062477 116.110353,21.9111355 115.907227,21.3779297 C115.704101,20.8447239 115.602539,20.2861357 115.602539,19.7021484 C115.619466,18.1194582 116.199213,16.8457079 117.341797,15.8808594 C118.264328,15.0852825 119.339187,14.6875 120.566406,14.6875 C121.988288,14.6875 123.24088,15.2757103 124.324219,16.4521484 C124.510418,16.6722016 124.671223,16.8964832 124.806641,17.125 C124.882813,17.2519538 124.920898,17.3958325 124.920898,17.5566406 C124.920898,17.7682302 124.844727,17.9501946 124.692383,18.1025391 C124.540038,18.2548836 124.358074,18.3310547 124.146484,18.3310547 C123.90104,18.3310547 123.72754,18.263347 123.625977,18.1279297 C123.490559,17.9417308 123.325522,17.7301444 123.130859,17.4931641 C122.496091,16.7483687 121.730148,16.3463545 120.833008,16.2871094 C119.910477,16.2278643 119.08529,16.4986949 118.357422,17.0996094 C117.629554,17.7089874 117.236003,18.4664668 117.176758,19.3720703 C117.142903,19.8375674 117.189452,20.2776672 117.316406,20.6923828 C117.44336,21.1070984 117.659178,21.4921857 117.963867,21.8476562 C118.268556,22.2115904 118.613442,22.4887686 118.998535,22.6791992 C119.383628,22.8696299 119.804685,22.9860024 120.261719,23.0283203 C121.065759,23.1129562 121.816891,23.3351219 122.515137,23.6948242 C123.213382,24.0545265 123.829099,24.5348277 124.362305,25.1357422 C124.810875,25.6858751 125.157876,26.2825489 125.40332,26.9257812 C125.648764,27.5690136 125.771484,28.233395 125.771484,28.9189453 C125.754557,30.0869199 125.557782,31.020016 125.181152,31.7182617 C124.804523,32.4165074 124.298831,33.0322239 123.664062,33.5654297 C122.529942,34.5218147 121.25196,35 119.830078,35 C118.044262,35 116.503913,34.2933013 115.208984,32.8798828 C115.065103,32.7190747 114.908529,32.5159517 114.739258,32.2705078 C114.629231,32.1266269 114.574219,31.9658212 114.574219,31.7880859 L114.574219,31.7880859 Z M142.25,27.890625 C142.25,29.8541765 141.555997,31.529941 140.167969,32.9179688 C138.779941,34.3059965 137.104176,35 135.140625,35 C133.177074,35 131.501309,34.3059965 130.113281,32.9179688 C128.725253,31.529941 128.03125,29.8541765 128.03125,27.890625 C128.03125,25.9270735 128.725253,24.251309 130.113281,22.8632812 C131.501309,21.4752535 133.177074,20.78125 135.140625,20.78125 C137.104176,20.78125 138.779941,21.4752535 140.167969,22.8632812 C141.555997,24.251309 142.25,25.9270735 142.25,27.890625 L142.25,27.890625 Z M135.140625,22.3554688 C133.61718,22.3554688 132.313807,22.89713 131.230469,23.9804688 C130.14713,25.0638075 129.605469,26.3671799 129.605469,27.890625 C129.605469,29.4140701 130.14713,30.7174425 131.230469,31.8007812 C132.313807,32.88412 133.61718,33.4257812 135.140625,33.4257812 C136.66407,33.4257812 137.967443,32.88412 139.050781,31.8007812 C140.125656,30.7259061 140.663086,29.4225337 140.663086,27.890625 C140.663086,26.3587163 140.125656,25.0553439 139.050781,23.9804688 C137.967443,22.89713 136.66407,22.3554688 135.140625,22.3554688 L135.140625,22.3554688 Z M144.319336,21.5683594 C144.319336,21.3483062 144.395507,21.1621101 144.547852,21.0097656 C144.700196,20.8574211 144.886392,20.78125 145.106445,20.78125 C145.326498,20.78125 145.512695,20.8574211 145.665039,21.0097656 C145.817384,21.1621101 145.893555,21.3483062 145.893555,21.5683594 L145.893555,23.3583984 C147.611662,21.6402909 149.456696,20.78125 151.428711,20.78125 C152.486659,20.78125 153.392249,20.9462874 154.145508,21.2763672 C154.280925,21.3271487 154.403645,21.4075515 154.513672,21.5175781 C154.657553,21.6614591 154.729492,21.8476551 154.729492,22.0761719 C154.729492,22.2962251 154.653321,22.4824211 154.500977,22.6347656 C154.348632,22.7871101 154.162436,22.8632812 153.942383,22.8632812 C153.806965,22.8632812 153.688477,22.8378909 153.586914,22.7871094 C152.994463,22.4993475 152.275069,22.3554688 151.428711,22.3554688 C149.905266,22.3554688 148.601893,22.89713 147.518555,23.9804688 C146.435216,25.0553439 145.893555,26.3587163 145.893555,27.890625 L145.893555,34.2128906 C145.893555,34.4329438 145.817384,34.6191399 145.665039,34.7714844 C145.512695,34.9238289 145.326498,35 145.106445,35 C144.886392,35 144.700196,34.9238289 144.547852,34.7714844 C144.395507,34.6191399 144.319336,34.4329438 144.319336,34.2128906 L144.319336,21.5683594 Z M163.628906,33.4257812 C163.848959,33.4257812 164.037271,33.5019524 164.193848,33.6542969 C164.350424,33.8066414 164.428711,33.9928374 164.428711,34.2128906 C164.428711,34.4329438 164.350424,34.6191399 164.193848,34.7714844 C164.037271,34.9238289 163.848959,35 163.628906,35 C160.294254,35 158.626953,33.332699 158.626953,29.9980469 L158.626953,22.3554688 L157.319336,22.3554688 C157.099283,22.3554688 156.910971,22.2792976 156.754395,22.1269531 C156.597818,21.9746086 156.519531,21.7884126 156.519531,21.5683594 C156.519531,21.3483062 156.597818,21.1621101 156.754395,21.0097656 C156.910971,20.8574211 157.099283,20.78125 157.319336,20.78125 L158.626953,20.78125 L158.626953,15.4619141 C158.626953,15.2418609 158.703124,15.0556648 158.855469,14.9033203 C159.007813,14.7509758 159.194009,14.6748047 159.414062,14.6748047 C159.634116,14.6748047 159.822428,14.7509758 159.979004,14.9033203 C160.13558,15.0556648 160.213867,15.2418609 160.213867,15.4619141 L160.213867,20.78125 L162.587891,20.78125 C162.807944,20.78125 162.996256,20.8574211 163.152832,21.0097656 C163.309408,21.1621101 163.387695,21.3483062 163.387695,21.5683594 C163.387695,21.7884126 163.309408,21.9746086 163.152832,22.1269531 C162.996256,22.2792976 162.807944,22.3554688 162.587891,22.3554688 L160.213867,22.3554688 L160.213867,29.9980469 C160.213867,32.2832146 161.352202,33.4257812 163.628906,33.4257812 L163.628906,33.4257812 Z M179.231445,27.1035156 C178.994465,25.8424416 178.465499,24.8014364 177.644531,23.9804688 C176.561193,22.89713 175.25782,22.3554688 173.734375,22.3554688 C172.21093,22.3554688 170.907557,22.89713 169.824219,23.9804688 C169.011715,24.7929728 168.478517,25.833978 168.224609,27.1035156 L179.231445,27.1035156 Z M177.78418,31.9404297 C178.004233,31.9404297 178.190429,32.0187167 178.342773,32.175293 C178.495118,32.3318693 178.571289,32.5201812 178.571289,32.7402344 C178.571289,32.9602876 178.503581,33.1422519 178.368164,33.2861328 C177.047845,34.4287167 175.503264,35 173.734375,35 C171.770824,35 170.095059,34.3059965 168.707031,32.9179688 C167.319003,31.529941 166.625,29.8541765 166.625,27.890625 C166.625,25.9270735 167.319003,24.251309 168.707031,22.8632812 C170.095059,21.4752535 171.770824,20.78125 173.734375,20.78125 C175.697926,20.78125 177.373691,21.4752535 178.761719,22.8632812 C180.149747,24.251309 180.84375,25.9270735 180.84375,27.890625 C180.84375,28.1106782 180.767579,28.2968742 180.615234,28.4492188 C180.46289,28.6015633 180.276694,28.6777344 180.056641,28.6777344 L168.224609,28.6777344 C168.478517,29.947272 169.011715,30.9882772 169.824219,31.8007812 C170.907557,32.88412 172.21093,33.4257812 173.734375,33.4257812 C174.428389,33.4257812 175.071612,33.3136404 175.664062,33.0893555 C176.256513,32.8650705 176.798175,32.5413433 177.289062,32.1181641 C177.432943,31.9996739 177.597981,31.9404297 177.78418,31.9404297 L177.78418,31.9404297 Z M195.506836,27.890625 C195.506836,26.3587163 194.969406,25.0553439 193.894531,23.9804688 C192.811193,22.89713 191.50782,22.3554688 189.984375,22.3554688 C188.46093,22.3554688 187.157557,22.89713 186.074219,23.9804688 C184.99088,25.0638075 184.449219,26.3671799 184.449219,27.890625 C184.449219,29.4140701 184.99088,30.7174425 186.074219,31.8007812 C187.157557,32.88412 188.46093,33.4257812 189.984375,33.4257812 C191.50782,33.4257812 192.811193,32.88412 193.894531,31.8007812 C194.969406,30.7259061 195.506836,29.4225337 195.506836,27.890625 L195.506836,27.890625 Z M195.506836,15.4746094 C195.506836,15.2545562 195.585123,15.0683601 195.741699,14.9160156 C195.898276,14.7636711 196.086587,14.6875 196.306641,14.6875 C196.526694,14.6875 196.71289,14.7636711 196.865234,14.9160156 C197.017579,15.0683601 197.09375,15.2545562 197.09375,15.4746094 L197.09375,27.890625 C197.09375,29.8541765 196.399747,31.529941 195.011719,32.9179688 C193.623691,34.3059965 191.947926,35 189.984375,35 C188.020824,35 186.345059,34.3059965 184.957031,32.9179688 C183.569003,31.529941 182.875,29.8541765 182.875,27.890625 C182.875,25.9270735 183.569003,24.251309 184.957031,22.8632812 C186.345059,21.4752535 188.020824,20.78125 189.984375,20.78125 C191.947926,20.78125 193.623691,21.4752535 195.011719,22.8632812 L195.506836,23.3583984 L195.506836,15.4746094 Z M207.795898,34.2128906 C207.795898,34.4329438 207.721843,34.6191399 207.57373,34.7714844 C207.425618,34.9238289 207.241538,35 207.021484,35 C206.801431,35 206.615235,34.9238289 206.462891,34.7714844 C206.310546,34.6191399 206.234375,34.4329438 206.234375,34.2128906 L206.234375,15.4746094 C206.234375,15.2545562 206.310546,15.0683601 206.462891,14.9160156 C206.615235,14.7636711 206.801431,14.6875 207.021484,14.6875 C207.266928,14.6875 207.46582,14.780598 207.618164,14.9667969 L220.821289,31.9404297 L220.821289,15.4746094 C220.821289,15.2545562 220.89746,15.0683601 221.049805,14.9160156 C221.202149,14.7636711 221.388345,14.6875 221.608398,14.6875 C221.819988,14.6875 222.001952,14.7636711 222.154297,14.9160156 C222.306641,15.0683601 222.382812,15.2545562 222.382812,15.4746094 L222.382812,34.2128906 C222.382812,34.4329438 222.306641,34.6191399 222.154297,34.7714844 C222.001952,34.9238289 221.819988,35 221.608398,35 C221.354491,35 221.159831,34.9238289 221.024414,34.7714844 L207.795898,17.7597656 L207.795898,34.2128906 Z M238.734375,27.890625 C238.734375,29.8541765 238.040372,31.529941 236.652344,32.9179688 C235.264316,34.3059965 233.588551,35 231.625,35 C229.661449,35 227.985684,34.3059965 226.597656,32.9179688 C225.209628,31.529941 224.515625,29.8541765 224.515625,27.890625 C224.515625,25.9270735 225.209628,24.251309 226.597656,22.8632812 C227.985684,21.4752535 229.661449,20.78125 231.625,20.78125 C233.588551,20.78125 235.264316,21.4752535 236.652344,22.8632812 C238.040372,24.251309 238.734375,25.9270735 238.734375,27.890625 L238.734375,27.890625 Z M231.625,22.3554688 C230.101555,22.3554688 228.798182,22.89713 227.714844,23.9804688 C226.631505,25.0638075 226.089844,26.3671799 226.089844,27.890625 C226.089844,29.4140701 226.631505,30.7174425 227.714844,31.8007812 C228.798182,32.88412 230.101555,33.4257812 231.625,33.4257812 C233.148445,33.4257812 234.451818,32.88412 235.535156,31.8007812 C236.610031,30.7259061 237.147461,29.4225337 237.147461,27.890625 C237.147461,26.3587163 236.610031,25.0553439 235.535156,23.9804688 C234.451818,22.89713 233.148445,22.3554688 231.625,22.3554688 L231.625,22.3554688 Z M249.398438,20.9970703 C249.550782,20.8531894 249.732746,20.78125 249.944336,20.78125 C250.164389,20.78125 250.346353,20.8531894 250.490234,20.9970703 C250.591797,21.0986333 250.667968,21.2298169 250.71875,21.390625 L254.15918,31.7119141 L257.637695,21.2382812 C257.67155,21.1536454 257.72233,21.0774743 257.790039,21.0097656 C257.942384,20.8574211 258.137043,20.78125 258.374023,20.78125 C258.594077,20.78125 258.780273,20.8574211 258.932617,21.0097656 C259.084962,21.1621101 259.161133,21.3483062 259.161133,21.5683594 C259.161133,21.6699224 259.139974,21.7799473 259.097656,21.8984375 L254.895508,34.5048828 C254.861653,34.6064458 254.798178,34.7037756 254.705078,34.796875 C254.569661,34.9322923 254.387696,35 254.15918,35 C253.930663,35 253.744467,34.9280606 253.600586,34.7841797 C253.524414,34.7080074 253.465169,34.6149094 253.422852,34.5048828 L249.944336,24.0693359 L246.46582,34.5048828 C246.431966,34.6064458 246.376954,34.6953121 246.300781,34.7714844 C246.148437,34.9238289 245.958009,35 245.729492,35 C245.500975,35 245.314779,34.9280606 245.170898,34.7841797 C245.094726,34.7080074 245.035482,34.6149094 244.993164,34.5048828 L240.791016,21.8984375 C240.748698,21.7714837 240.727539,21.6614588 240.727539,21.5683594 C240.727539,21.3483062 240.80371,21.1621101 240.956055,21.0097656 C241.108399,20.8574211 241.294595,20.78125 241.514648,20.78125 C241.734702,20.78125 241.925129,20.8574211 242.085938,21.0097656 C242.145183,21.0690107 242.195963,21.1494136 242.238281,21.2509766 L245.729492,31.7119141 L249.169922,21.390625 C249.229167,21.2213533 249.305338,21.0901697 249.398438,20.9970703 L249.398438,20.9970703 Z" id="Get-Sorted-Now"></path>
                <path d="M35.3738286,13.5416667 C39.2921429,13.5416667 41.7977429,17.3283333 41.7977429,17.3283333 C41.7977429,17.3283333 37.9755429,19.4 37.9755429,23.8991667 C37.9755429,29.2391667 42.7771143,30.7925 42.7771143,30.7925 C42.7771143,30.7925 38.9872286,39.7741667 34.7316857,39.7741667 C32.3387714,39.7741667 32.1788571,38.3991667 28.9988,38.3991667 C26.2371714,38.3991667 25.3058571,39.7741667 23.2021143,39.7741667 C19.1868571,39.7741667 14,31.0191667 14,23.8991667 C14,16.5033333 19.2514857,13.5416667 22.5434,13.5416667 C25.4342857,13.5416667 26.6382,15.2408333 28.9664857,15.2408333 C30.9260571,15.2408333 32.4680286,13.5416667 35.3738286,13.5416667 L35.3738286,13.5416667 Z M34.7002,6 C35.2777143,9.625 31.9858,14.1083333 28.0517429,13.9625 C27.4734,9.35 31.7132,6.24333333 34.7002,6 L34.7002,6 Z" id="Imported-Layers"></path>
            </g>
        </g>
    </g>
</svg>