<?xml version="1.0" encoding="UTF-8" standalone="no"?>
<svg width="308px" height="55px" viewBox="0 0 308 55" version="1.1" xmlns="http://www.w3.org/2000/svg" xmlns:xlink="http://www.w3.org/1999/xlink" xmlns:sketch="http://www.bohemiancoding.com/sketch/ns">
    <!-- Generator: Sketch 3.3.3 (12072) - http://www.bohemiancoding.com/sketch -->
    <title>beta</title>
    <desc>Created with Sketch.</desc>
    <defs></defs>
    <g id="Page-1" stroke="none" stroke-width="1" fill="none" fill-rule="evenodd" sketch:type="MSPage">
        <g id="beta" sketch:type="MSLayerGroup" fill="#FFFFFF">
            <path d="M0,49.40421 L0,5.51123234 C0,2.4717913 2.45452224,0 5.47843656,0 L302.527272,0 C305.55404,0 307.998573,2.4717913 307.998573,5.51123234 L308,49.40421 C308,52.4450881 305.55404,54.9082569 302.528699,54.9082569 L5.47843656,54.9082569 C2.45452224,54.9082569 0,52.4450881 0,49.40421 Z" id="Background" fill-opacity="0.1" sketch:type="MSShapeGroup"></path>
            <g id="Apple" transform="translate(11.935252, 8.236239)" sketch:type="MSShapeGroup">
                <path d="M23.7792806,18.9213853 C23.7396403,14.4971525 27.3865468,12.3447489 27.5533094,12.2445413 C25.4879137,9.22046904 22.2866187,8.8072844 21.1616547,8.77433945 C18.4729496,8.49018922 15.8648921,10.3900149 14.4952518,10.3900149 C13.0982734,10.3900149 10.9891367,8.80179358 8.71597122,8.8484656 C5.79079137,8.89376491 3.0542446,10.5945482 1.55338129,13.2356353 C-1.54402878,18.6207626 0.76604317,26.5344151 3.73359712,30.8872672 C5.21805755,33.0190803 6.95266187,35.3993532 9.2230935,35.3156181 C11.4443165,35.2236468 12.2740288,33.8934943 14.9545324,33.8934943 C17.6104317,33.8934943 18.3895683,35.3156181 20.7051079,35.2620826 C23.0889928,35.2236468 24.5898561,33.1206606 26.0223741,30.9696296 C27.7378417,28.5262122 28.4267626,26.1198578 28.4541007,25.9963142 C28.3980576,25.9770963 23.8243885,24.2241502 23.7792806,18.9213853 L23.7792806,18.9213853 L23.7792806,18.9213853 Z" id="Shape"></path>
                <path d="M19.4051799,5.91087385 C20.5998561,4.41050573 21.4172662,2.36929128 21.1903597,0.297877294 C19.461223,0.374748853 17.298777,1.49899541 16.0535252,2.96641858 C14.9517986,4.25950803 13.9676259,6.37896674 14.2218705,8.37213647 C16.1642446,8.51764335 18.1585612,7.38790596 19.4051799,5.91087385 L19.4051799,5.91087385 L19.4051799,5.91087385 Z" id="Shape"></path>
            </g>
            <path d="M61.1545255,38.5281241 C59.4172053,38.5281241 57.8505383,38.2385751 56.4544775,37.6594684 C55.0584167,37.0803616 53.7089114,36.2117146 52.4059213,35.0535012 L53.4607176,33.8435878 C54.0605067,34.4020122 54.6551162,34.8828704 55.2445641,35.2861768 C55.8340121,35.6894833 56.4389627,36.0203964 57.0594342,36.2789262 C57.6799056,36.537456 58.3313909,36.7339357 59.0139095,36.8683712 C59.6964282,37.0028067 60.4409828,37.0700234 61.2475957,37.0700234 C62.0542086,37.0700234 62.7987632,36.9614425 63.4812819,36.7442775 C64.1638005,36.5271125 64.7428985,36.2272224 65.2185933,35.8445984 C65.6942881,35.4619743 66.0665654,35.0069687 66.3354364,34.4795679 C66.6043074,33.9521672 66.7387409,33.3782397 66.7387409,32.7577682 L66.7387409,32.6957213 C66.7387409,32.1166146 66.650842,31.5995628 66.4750418,31.1445504 C66.2992415,30.689538 65.9786694,30.2758965 65.5133158,29.9036136 C65.0479622,29.5313307 64.4223295,29.1952471 63.636399,28.8953525 C62.8504684,28.595458 61.8370469,28.3214205 60.5961039,28.0732319 C59.2931138,27.8043609 58.1762819,27.4889593 57.2455747,27.1270176 C56.3148674,26.7650759 55.5548013,26.3410935 54.9653534,25.8550575 C54.3759055,25.3690215 53.9467525,24.805435 53.6778815,24.1642811 C53.4090105,23.5231273 53.274577,22.7889137 53.274577,21.9616184 L53.274577,21.8995716 C53.274577,21.0929586 53.4503747,20.3432335 53.8019752,19.6503737 C54.1535757,18.9575139 54.6396044,18.3525632 55.2600759,17.8355037 C55.8805473,17.3184441 56.6147609,16.9151437 57.4627386,16.6255903 C58.3107163,16.336037 59.2414096,16.1912625 60.2548463,16.1912625 C61.8267074,16.1912625 63.1865536,16.4084242 64.3344259,16.8427543 C65.4822981,17.2770843 66.6043006,17.9389106 67.7004668,18.8282531 L66.676694,20.1002133 C65.6425749,19.2108708 64.6033007,18.5800676 63.5588404,18.2077847 C62.5143801,17.8355018 61.3923777,17.6493632 60.1927995,17.6493632 C59.3861865,17.6493632 58.6571435,17.757944 58.0056484,17.9751091 C57.3541534,18.1922741 56.7957374,18.4869936 56.3303838,18.8592765 C55.8650302,19.2315594 55.5082644,19.6658829 55.2600759,20.1622601 C55.0118873,20.6586373 54.8877948,21.1860301 54.8877948,21.7444545 L54.8877948,21.8065013 C54.8877948,22.385608 54.9756936,22.9078303 55.1514939,23.3731839 C55.3272941,23.8385376 55.6478663,24.26252 56.1132199,24.6451441 C56.5785735,25.0277682 57.2248883,25.3741929 58.0521836,25.6844287 C58.8794789,25.9946644 59.9342646,26.2842134 61.2165723,26.5530844 C63.739823,27.070144 65.5598454,27.799187 66.676694,28.7402354 C67.7935427,29.6812838 68.3519586,30.9480608 68.3519586,32.5406042 L68.3519586,32.6026511 C68.3519586,33.4713111 68.1709905,34.2727415 67.8090488,35.006966 C67.4471071,35.7411906 66.9507374,36.3668233 66.3199247,36.8838829 C65.689112,37.4009425 64.9342164,37.8042429 64.0552151,38.0937962 C63.1762139,38.3833496 62.209327,38.5281241 61.1545255,38.5281241 L61.1545255,38.5281241 Z M73.5328696,22.3959463 L75.0530171,22.3959463 L75.0530171,38.2178899 L73.5328696,38.2178899 L73.5328696,22.3959463 Z M73.3467291,16.1912625 L75.2391576,16.1912625 L75.2391576,18.2698315 L73.3467291,18.2698315 L73.3467291,16.1912625 Z M87.7726189,35.5808993 C88.5999142,35.5808993 89.406515,35.4361248 90.1924456,35.1465714 C90.9783761,34.8570181 91.676396,34.4485471 92.2865263,33.9211464 C92.8966566,33.3937456 93.3878558,32.7629424 93.7601387,32.0287178 C94.1324216,31.2944932 94.3185603,30.4723809 94.3185603,29.562356 L94.3185603,29.5003092 C94.3185603,28.5902843 94.1324216,27.7630014 93.7601387,27.0184357 C93.3878558,26.2738699 92.8966566,25.6378962 92.2865263,25.1104954 C91.676396,24.5830946 90.9783761,24.1797942 90.1924456,23.9005821 C89.406515,23.6213699 88.5999142,23.4817659 87.7726189,23.4817659 C86.9453236,23.4817659 86.1594048,23.6213699 85.414839,23.9005821 C84.6702733,24.1797942 84.018788,24.5779241 83.4603637,25.0949837 C82.9019393,25.6120433 82.4624453,26.237676 82.1418683,26.9719005 C81.8212914,27.7061251 81.6610054,28.5385785 81.6610054,29.4692858 L81.6610054,29.5313326 C81.6610054,30.4206751 81.8264619,31.2376169 82.1573801,31.9821827 C82.4882982,32.7267485 82.9329627,33.3627222 83.4913871,33.890123 C84.0498114,34.4175237 84.7012967,34.8311652 85.4458625,35.1310597 C86.1904282,35.4309543 86.966006,35.5808993 87.7726189,35.5808993 L87.7726189,35.5808993 Z M87.9897828,43.2436838 C85.3217554,43.2436838 82.901953,42.4370829 80.7303028,40.8238571 L81.6299819,39.5829203 C83.5534435,41.0720519 85.683697,41.8166065 88.0208062,41.8166065 C88.9308311,41.8166065 89.7632845,41.6873435 90.5181915,41.4288138 C91.2730984,41.170284 91.9245837,40.7824951 92.4726668,40.2654355 C93.02075,39.748376 93.449903,39.1072317 93.7601387,38.3419836 C94.0703745,37.5767354 94.22549,36.6874063 94.22549,35.6739695 L94.22549,33.3782365 C93.8738895,33.8746137 93.4809301,34.3399604 93.0466001,34.7742904 C92.6122701,35.2086204 92.1262414,35.5964093 91.5884994,35.9376686 C91.0507575,36.2789279 90.4509774,36.5477949 89.7891411,36.7442775 C89.1273049,36.9407601 88.4034323,37.039 87.6175018,37.039 C86.6661122,37.039 85.7354189,36.8632024 84.8253941,36.5116019 C83.9153692,36.1600014 83.1035979,35.6584611 82.3900557,35.006966 C81.6765135,34.355471 81.102586,33.5747228 80.6682559,32.6646979 C80.2339259,31.7546731 80.0167642,30.7309105 80.0167642,29.5933794 L80.0167642,29.5313326 C80.0167642,28.3938016 80.2339259,27.3596979 80.6682559,26.4289907 C81.102586,25.4982835 81.6765135,24.7071942 82.3900557,24.0556992 C83.1035979,23.4042041 83.9153692,22.9026639 84.8253941,22.5510633 C85.7354189,22.1994628 86.6661122,22.0236652 87.6175018,22.0236652 C88.4034323,22.0236652 89.1324754,22.1219051 89.8046528,22.3183877 C90.4768303,22.5148703 91.0817809,22.7733962 91.6195228,23.0939732 C92.1572648,23.4145501 92.6432935,23.7919979 93.0776235,24.226328 C93.5119536,24.660658 93.8945719,25.1053226 94.22549,25.560335 L94.22549,22.3959463 L95.7456375,22.3959463 L95.7456375,35.7670398 C95.7456375,36.9252532 95.5698399,37.9490158 95.2182394,38.8383583 C94.8666389,39.7277007 94.3702692,40.4929374 93.7291153,41.1340913 C93.0465967,41.8166099 92.2141433,42.3388322 91.2317301,42.7007739 C90.2493169,43.0627156 89.1686786,43.2436838 87.9897828,43.2436838 L87.9897828,43.2436838 Z M101.515993,22.3959463 L103.036141,22.3959463 L103.036141,25.343171 C103.573883,24.4124638 104.297755,23.6265451 105.20778,22.9853912 C106.117805,22.3442373 107.296683,22.0236652 108.74445,22.0236652 C109.737204,22.0236652 110.626534,22.1839513 111.412464,22.5045282 C112.198395,22.8251052 112.865391,23.2749402 113.413475,23.8540469 C113.961558,24.4331537 114.375199,25.1208326 114.654411,25.9171043 C114.933624,26.713376 115.073228,27.5871936 115.073228,28.5385832 L115.073228,38.2178899 L113.55308,38.2178899 L113.55308,28.817794 C113.55308,27.1838857 113.118756,25.8757447 112.250096,24.8933315 C111.381436,23.9109183 110.140512,23.4197191 108.527286,23.4197191 C107.741356,23.4197191 107.017483,23.5593231 106.355647,23.8385352 C105.693811,24.1177474 105.114713,24.5055363 104.618335,25.0019134 C104.121958,25.4982906 103.734169,26.0929002 103.454957,26.78576 C103.175745,27.4786198 103.036141,28.238686 103.036141,29.0659813 L103.036141,38.2178899 L101.515993,38.2178899 L101.515993,22.3959463 Z M135.858918,38.5901709 C134.866164,38.5901709 133.976835,38.4298849 133.190904,38.1093079 C132.404974,37.788731 131.737977,37.3388959 131.189894,36.7597892 C130.641811,36.1806825 130.228169,35.4930036 129.948957,34.6967319 C129.669745,33.9004601 129.530141,33.0266426 129.530141,32.075253 L129.530141,22.3959463 L131.050288,22.3959463 L131.050288,31.7960422 C131.050288,33.4299504 131.484612,34.7380915 132.353272,35.7205047 C133.221932,36.7029179 134.462856,37.1941171 136.076082,37.1941171 C136.84133,37.1941171 137.560032,37.0545131 138.23221,36.7753009 C138.904387,36.4960888 139.488656,36.1082999 139.985033,35.6119227 C140.48141,35.1155455 140.869199,34.5209359 141.148411,33.8280761 C141.427623,33.1352163 141.567227,32.3751501 141.567227,31.5478548 L141.567227,22.3959463 L143.087375,22.3959463 L143.087375,38.2178899 L141.567227,38.2178899 L141.567227,35.2706651 C141.029485,36.2013723 140.305613,36.9872911 139.395588,37.6284449 C138.485563,38.2695988 137.306685,38.5901709 135.858918,38.5901709 L135.858918,38.5901709 Z M156.737679,37.1320702 C157.606339,37.1320702 158.418111,36.9769547 159.173018,36.666719 C159.927924,36.3564832 160.58458,35.9118187 161.143005,35.3327119 C161.701429,34.7536052 162.140923,34.0452442 162.4615,33.2076077 C162.782077,32.3699712 162.942363,31.4237664 162.942363,30.3689649 L162.942363,30.3069181 C162.942363,29.2727989 162.776906,28.3317646 162.445988,27.483787 C162.11507,26.6358093 161.665235,25.9171072 161.096469,25.3276593 C160.527704,24.7382114 159.865878,24.2832058 159.110971,23.9626289 C158.356064,23.642052 157.564974,23.4817659 156.737679,23.4817659 C155.910384,23.4817659 155.108954,23.6472225 154.333364,23.9781406 C153.557775,24.3090587 152.870096,24.7744054 152.270307,25.3741945 C151.670518,25.9739836 151.18966,26.6875151 150.827718,27.5148104 C150.465776,28.3421057 150.284808,29.2624579 150.284808,30.2758947 L150.284808,30.3379415 C150.284808,31.3513782 150.465776,32.276901 150.827718,33.1145375 C151.18966,33.952174 151.670518,34.6657055 152.270307,35.2551534 C152.870096,35.8446013 153.557775,36.3047774 154.333364,36.6356955 C155.108954,36.9666137 155.910384,37.1320702 156.737679,37.1320702 L156.737679,37.1320702 Z M148.857731,22.3959463 L150.377878,22.3959463 L150.377878,25.932616 C150.708796,25.4155564 151.091415,24.9191867 151.525745,24.4434919 C151.960075,23.9677971 152.440933,23.5541557 152.968334,23.2025551 C153.495734,22.8509546 154.085174,22.5665761 154.736669,22.3494111 C155.388164,22.1322461 156.106866,22.0236652 156.892796,22.0236652 C157.844186,22.0236652 158.78005,22.2098039 159.700416,22.5820868 C160.620782,22.9543697 161.442894,23.4921035 162.166777,24.1953045 C162.890661,24.8985056 163.474929,25.7619821 163.919601,26.78576 C164.364272,27.809538 164.586604,28.9625635 164.586604,30.2448712 L164.586604,30.3069181 C164.586604,31.5892258 164.364272,32.7422513 163.919601,33.7660293 C163.474929,34.7898072 162.890661,35.6584543 162.166777,36.3719965 C161.442894,37.0855387 160.620782,37.6336136 159.700416,38.0162377 C158.78005,38.3988618 157.844186,38.5901709 156.892796,38.5901709 C156.106866,38.5901709 155.382993,38.4867606 154.721157,38.2799367 C154.059321,38.0731129 153.464711,37.7939049 152.93731,37.4423044 C152.40991,37.0907039 151.934222,36.6874035 151.510233,36.2323911 C151.086244,35.7773787 150.708796,35.301691 150.377878,34.8053138 L150.377878,43.1816369 L148.857731,43.1816369 L148.857731,22.3959463 Z M179.570915,23.7920001 L177.275182,23.7920001 L177.275182,22.3959463 L179.570915,22.3959463 L179.570915,20.8447753 C179.570915,19.0247256 180.036262,17.6493678 180.966969,16.7186606 C181.794265,15.8913653 182.900755,15.4777238 184.286475,15.4777238 C184.76217,15.4777238 185.186152,15.5087469 185.558435,15.5707941 C185.930718,15.6328412 186.292654,15.7259106 186.644255,15.8500049 L186.644255,17.2770821 C186.189243,17.1323055 185.785942,17.0288951 185.434342,16.9668479 C185.082741,16.9048008 184.700123,16.8737777 184.286475,16.8737777 C182.15619,16.8737777 181.091063,18.2077714 181.091063,20.8757987 L181.091063,22.3959463 L186.613232,22.3959463 L186.613232,23.7920001 L181.091063,23.7920001 L181.091063,38.2178899 L179.570915,38.2178899 L179.570915,23.7920001 Z M196.94403,37.1630937 C197.874737,37.1630937 198.738214,36.9821255 199.534486,36.6201838 C200.330757,36.2582421 201.013266,35.7722134 201.582031,35.1620831 C202.150797,34.5519528 202.595461,33.8332508 202.916038,33.0059555 C203.236615,32.1786602 203.396901,31.2996721 203.396901,30.3689649 L203.396901,30.3069181 C203.396901,29.3555285 203.231445,28.4610288 202.900526,27.6233923 C202.569608,26.7857558 202.109432,26.0567128 201.519984,25.4362413 C200.930536,24.8157698 200.237687,24.3297411 199.441415,23.9781406 C198.645144,23.6265401 197.792008,23.4507425 196.881983,23.4507425 C195.951276,23.4507425 195.087799,23.6317106 194.291528,23.9936523 C193.495256,24.355594 192.812748,24.8416227 192.243982,25.451753 C191.675217,26.0618833 191.230552,26.7805853 190.909975,27.6078806 C190.589398,28.4351759 190.429112,29.314164 190.429112,30.2448712 L190.429112,30.3069181 C190.429112,31.2583077 190.594569,32.1528073 190.925487,32.9904438 C191.256405,33.8280803 191.716581,34.5571234 192.306029,35.1775948 C192.895477,35.7980663 193.588326,36.284095 194.384598,36.6356955 C195.18087,36.987296 196.034005,37.1630937 196.94403,37.1630937 L196.94403,37.1630937 Z M196.881983,38.5901709 C195.703087,38.5901709 194.622449,38.3678386 193.640036,37.9231674 C192.657623,37.4784962 191.804487,36.8838866 191.080604,36.1393208 C190.35672,35.3947551 189.793134,34.526108 189.389828,33.5333536 C188.986521,32.5405993 188.784871,31.4858136 188.784871,30.3689649 L188.784871,30.3069181 C188.784871,29.1900694 188.986521,28.1352837 189.389828,27.1425293 C189.793134,26.149775 190.361891,25.2707869 191.096116,24.5055387 C191.83034,23.7402906 192.693817,23.13534 193.686571,22.6906687 C194.679325,22.2459975 195.765134,22.0236652 196.94403,22.0236652 C198.122926,22.0236652 199.203564,22.2459975 200.185977,22.6906687 C201.16839,23.13534 202.021526,23.7299495 202.745409,24.4745153 C203.469293,25.2190811 204.032879,26.0877281 204.436186,27.0804825 C204.839492,28.0732369 205.041142,29.1280226 205.041142,30.2448712 L205.041142,30.3069181 C205.041142,31.4237667 204.839492,32.4785524 204.436186,33.4713068 C204.032879,34.4640612 203.464122,35.3430493 202.729898,36.1082974 C201.995673,36.8735456 201.132197,37.4784962 200.139442,37.9231674 C199.146688,38.3678386 198.060879,38.5901709 196.881983,38.5901709 L196.881983,38.5901709 Z M209.725679,22.3959463 L211.245826,22.3959463 L211.245826,26.894342 C211.556062,26.191141 211.949021,25.5396557 212.424716,24.9398666 C212.900411,24.3400775 213.438145,23.8281962 214.037934,23.4042074 C214.637723,22.9802185 215.294379,22.6596464 216.007921,22.4424814 C216.721463,22.2253164 217.471188,22.1270765 218.257119,22.1477589 L218.257119,23.8230235 L218.102002,23.8230235 C217.191977,23.8230235 216.32333,23.9936506 215.496035,24.3349099 C214.668739,24.6761692 213.939696,25.18288 213.308884,25.8550575 C212.678071,26.5272349 212.176531,27.3545178 211.804248,28.336931 C211.431965,29.3193442 211.245826,30.4516876 211.245826,31.7339953 L211.245826,38.2178899 L209.725679,38.2178899 L209.725679,22.3959463 Z M239.32202,37.1320702 C240.19068,37.1320702 241.002452,36.9769547 241.757359,36.666719 C242.512266,36.3564832 243.168921,35.9118187 243.727346,35.3327119 C244.28577,34.7536052 244.725264,34.0452442 245.045841,33.2076077 C245.366418,32.3699712 245.526704,31.4237664 245.526704,30.3689649 L245.526704,30.3069181 C245.526704,29.2727989 245.361247,28.3317646 245.030329,27.483787 C244.699411,26.6358093 244.249576,25.9171072 243.680811,25.3276593 C243.112045,24.7382114 242.450219,24.2832058 241.695312,23.9626289 C240.940405,23.642052 240.149316,23.4817659 239.32202,23.4817659 C238.494725,23.4817659 237.693295,23.6472225 236.917705,23.9781406 C236.142116,24.3090587 235.454437,24.7744054 234.854648,25.3741945 C234.254859,25.9739836 233.774001,26.6875151 233.412059,27.5148104 C233.050117,28.3421057 232.869149,29.2624579 232.869149,30.2758947 L232.869149,30.3379415 C232.869149,31.3513782 233.050117,32.276901 233.412059,33.1145375 C233.774001,33.952174 234.254859,34.6657055 234.854648,35.2551534 C235.454437,35.8446013 236.142116,36.3047774 236.917705,36.6356955 C237.693295,36.9666137 238.494725,37.1320702 239.32202,37.1320702 L239.32202,37.1320702 Z M239.477137,38.5901709 C238.691207,38.5901709 237.967334,38.4867606 237.305498,38.2799367 C236.643662,38.0731129 236.049052,37.7939049 235.521651,37.4423044 C234.994251,37.0907039 234.518563,36.6874035 234.094574,36.2323911 C233.670585,35.7773787 233.293138,35.301691 232.962219,34.8053138 L232.962219,38.2178899 L231.442072,38.2178899 L231.442072,15.5707941 L232.962219,15.5707941 L232.962219,25.932616 C233.293138,25.4155564 233.675756,24.9191867 234.110086,24.4434919 C234.544416,23.9677971 235.025274,23.5541557 235.552675,23.2025551 C236.080076,22.8509546 236.669515,22.5665761 237.32101,22.3494111 C237.972505,22.1322461 238.691207,22.0236652 239.477137,22.0236652 C240.428527,22.0236652 241.364391,22.2098039 242.284757,22.5820868 C243.205123,22.9543697 244.027235,23.4921035 244.751119,24.1953045 C245.475002,24.8985056 246.059271,25.7619821 246.503942,26.78576 C246.948613,27.809538 247.170945,28.9625635 247.170945,30.2448712 L247.170945,30.3069181 C247.170945,31.5892258 246.948613,32.7422513 246.503942,33.7660293 C246.059271,34.7898072 245.475002,35.6584543 244.751119,36.3719965 C244.027235,37.0855387 243.205123,37.6336136 242.284757,38.0162377 C241.364391,38.3988618 240.428527,38.5901709 239.477137,38.5901709 L239.477137,38.5901709 Z M263.954615,29.562356 C263.892568,28.7557431 263.732282,27.9853359 263.473752,27.2511113 C263.215222,26.5168867 262.853286,25.8654014 262.387932,25.2966359 C261.922579,24.7278704 261.348651,24.2728648 260.666132,23.9316055 C259.983614,23.5903462 259.187354,23.4197191 258.277329,23.4197191 C257.491399,23.4197191 256.757185,23.5748346 256.074666,23.8850704 C255.392148,24.1953061 254.797538,24.6244591 254.29082,25.1725422 C253.784102,25.7206254 253.36529,26.3721107 253.034371,27.1270176 C252.703453,27.8819246 252.506974,28.6936959 252.444926,29.562356 L263.954615,29.562356 Z M258.587563,38.5901709 C257.553444,38.5901709 256.565875,38.3936912 255.624827,38.000726 C254.683779,37.6077607 253.856496,37.0493447 253.142953,36.3254613 C252.429411,35.601578 251.865825,34.7329309 251.452177,33.7194942 C251.038529,32.7060574 250.831709,31.5788845 250.831709,30.3379415 L250.831709,30.2758947 C250.831709,29.1383636 251.023018,28.0680664 251.405642,27.0649708 C251.788266,26.0618752 252.315659,25.1880577 252.987836,24.4434919 C253.660014,23.6989261 254.451103,23.1094871 255.361128,22.675157 C256.271153,22.240827 257.263892,22.0236652 258.339376,22.0236652 C259.456225,22.0236652 260.459305,22.2356565 261.348648,22.6596453 C262.23799,23.0836342 262.998056,23.6679027 263.628869,24.4124685 C264.259682,25.1570343 264.74571,26.0308518 265.08697,27.0339474 C265.428229,28.0370429 265.598856,29.1280223 265.598856,30.3069181 L265.598856,30.632664 C265.598856,30.7050523 265.588515,30.8032922 265.567833,30.9273865 L252.444926,30.9273865 C252.506974,31.9201408 252.724135,32.7991289 253.096418,33.5643771 C253.468701,34.3296252 253.934048,34.9811105 254.492472,35.5188525 C255.050896,36.0565944 255.68687,36.4650653 256.400412,36.7442775 C257.113955,37.0234897 257.86368,37.1630937 258.64961,37.1630937 C259.890553,37.1630937 260.940168,36.9252498 261.798487,36.449555 C262.656806,35.9738602 263.416872,35.3844212 264.078709,34.6812201 L265.133505,35.6119227 C264.326892,36.4805828 263.41171,37.1941143 262.387932,37.7525386 C261.364154,38.3109629 260.097377,38.5901709 258.587563,38.5901709 L258.587563,38.5901709 Z M275.309186,38.4971007 C274.688715,38.4971007 274.109617,38.4143724 273.571875,38.2489133 C273.034133,38.0834543 272.563616,37.8197578 272.160309,37.4578161 C271.757003,37.0958744 271.441601,36.6408688 271.214095,36.0927857 C270.986589,35.5447026 270.872837,34.8983878 270.872837,34.153822 L270.872837,23.7920001 L268.577104,23.7920001 L268.577104,22.3959463 L270.872837,22.3959463 L270.872837,17.339129 L272.392985,17.339129 L272.392985,22.3959463 L277.946177,22.3959463 L277.946177,23.7920001 L272.392985,23.7920001 L272.392985,33.9987049 C272.392985,35.136236 272.687704,35.9324958 273.277152,36.3875082 C273.8666,36.8425206 274.626666,37.0700234 275.557374,37.0700234 C275.950339,37.0700234 276.322616,37.0286593 276.674217,36.9459297 C277.025817,36.8632002 277.429118,36.7184257 277.88413,36.5116019 L277.88413,37.9386791 C277.470482,38.1248206 277.062011,38.2644246 276.658705,38.3574953 C276.255398,38.450566 275.805563,38.4971007 275.309186,38.4971007 L275.309186,38.4971007 Z M287.346273,37.1630937 C288.152886,37.1630937 288.918122,37.0441717 289.642006,36.8063243 C290.365889,36.5684769 291.001863,36.2375638 291.549946,35.8135749 C292.098029,35.3895861 292.532353,34.8777048 292.85293,34.2779157 C293.173507,33.6781266 293.333793,33.0163003 293.333793,32.2924169 L293.333793,30.4930586 C292.671956,30.3275995 291.896379,30.1673135 291.007036,30.0121956 C290.117694,29.8570777 289.104272,29.77952 287.966741,29.77952 C286.291468,29.77952 285.004009,30.1156036 284.104325,30.7877811 C283.204642,31.4599585 282.754807,32.3544581 282.754807,33.4713068 L282.754807,33.5333536 C282.754807,34.1124604 282.878899,34.6243417 283.127088,35.0690129 C283.375276,35.5136841 283.71136,35.8911319 284.135349,36.2013677 C284.559338,36.5116034 285.050537,36.7494472 285.608961,36.9149063 C286.167386,37.0803654 286.746484,37.1630937 287.346273,37.1630937 L287.346273,37.1630937 Z M287.253203,38.5901709 C286.508637,38.5901709 285.774423,38.4867606 285.05054,38.2799367 C284.326656,38.0731129 283.675171,37.7628818 283.096064,37.3492342 C282.516958,36.9355865 282.046441,36.4185347 281.684499,35.7980632 C281.322557,35.1775917 281.141589,34.4537192 281.141589,33.6264239 L281.141589,33.5643771 C281.141589,32.7370818 281.312216,32.0028682 281.653475,31.3617143 C281.994735,30.7205605 282.465252,30.1828266 283.065041,29.7484965 C283.66483,29.3141665 284.388703,28.9832533 285.23668,28.7557471 C286.084658,28.5282409 287.025692,28.4144895 288.059811,28.4144895 C289.17666,28.4144895 290.138376,28.4765357 290.944989,28.60063 C291.751602,28.7247243 292.537521,28.8901809 293.302769,29.0970047 L293.302769,28.4144895 C293.302769,26.8012637 292.842593,25.5913624 291.922227,24.7847495 C291.001861,23.9781366 289.724743,23.5748362 288.090835,23.5748362 C287.118763,23.5748362 286.229434,23.6937581 285.422821,23.9316055 C284.616208,24.1694529 283.850971,24.4745135 283.127088,24.8467963 L282.568666,23.5127893 C283.437326,23.0991417 284.316314,22.7682285 285.205657,22.5200399 C286.094999,22.2718513 287.087739,22.1477589 288.183905,22.1477589 C290.355555,22.1477589 292.020462,22.7268569 293.178676,23.8850704 C294.254159,24.9605543 294.791893,26.4496635 294.791893,28.3524427 L294.791893,38.2178899 L293.302769,38.2178899 L293.302769,35.5808993 C293.033898,35.9531822 292.708156,36.320289 292.325532,36.6822307 C291.942907,37.0441724 291.503413,37.3647445 291.007036,37.6439567 C290.510659,37.9231688 289.947073,38.1506716 289.31626,38.3264719 C288.685447,38.5022721 287.997768,38.5901709 287.253203,38.5901709 L287.253203,38.5901709 Z" id="Sign-up-for-beta" sketch:type="MSShapeGroup"></path>
        </g>
    </g>
</svg>