<?xml version="1.0" encoding="UTF-8" standalone="no"?>
<svg width="144px" height="78px" viewBox="0 0 144 78" version="1.1" xmlns="http://www.w3.org/2000/svg" xmlns:xlink="http://www.w3.org/1999/xlink" xmlns:sketch="http://www.bohemiancoding.com/sketch/ns">
    <!-- Generator: Sketch 3.3.3 (12072) - http://www.bohemiancoding.com/sketch -->
    <title>Cloud</title>
    <desc>Created with Sketch.</desc>
    <defs></defs>
    <g id="Page-1" stroke="none" stroke-width="1" fill="none" fill-rule="evenodd" sketch:type="MSPage">
        <g id="Desktop-HD" sketch:type="MSArtboardGroup" transform="translate(-636.000000, -89.000000)" fill="#FFFFFF" opacity="0.5">
            <g id="Cloud" sketch:type="MSLayerGroup" transform="translate(636.000000, 89.000000)">
                <path d="M130.1305,73.4501266 C127.471067,75.8427171 123.952205,77.2987013 120.093313,77.2987013 L17.5616811,77.2987013 C10.7150853,77.2987013 4.93896042,72.7167005 3.13403207,66.4503533 C1.13201854,62.6080639 -3.55271368e-14,58.2380844 -3.55271368e-14,53.6030685 C-3.55271368e-14,38.2555158 12.4116456,25.813866 27.7221863,25.813866 C29.8859322,25.813866 31.9917801,26.0623563 34.0128793,26.5324214 C38.5356559,11.1930771 52.696233,0 69.4647887,0 C85.2084104,0 98.6531219,9.86659872 103.98096,23.7677684 C107.613287,22.0450144 111.673974,21.081464 115.959168,21.081464 C131.445692,21.081464 144,33.6661212 144,49.1900826 C144,59.5316705 138.428628,68.5688492 130.1305,73.4501266 Z" id="Rectangle-1" sketch:type="MSShapeGroup" transform="translate(72.000000, 38.649351) scale(-1, 1) translate(-72.000000, -38.649351) "></path>
            </g>
        </g>
    </g>
</svg>