<?xml version="1.0" encoding="UTF-8" standalone="no"?>
<svg width="76px" height="76px" viewBox="0 0 76 76" version="1.1" xmlns="http://www.w3.org/2000/svg" xmlns:xlink="http://www.w3.org/1999/xlink" xmlns:sketch="http://www.bohemiancoding.com/sketch/ns">
    <!-- Generator: Sketch 3.3.3 (12072) - http://www.bohemiancoding.com/sketch -->
    <title>76@1x</title>
    <desc>Created with Sketch.</desc>
    <defs>
        <path id="path-1" d="M0,0 L66,0 L66,19 L0,19 L0,0 Z"></path>
        <path id="path-2" d="M0,0 L76,0 L76,19 L0,19 L0,0 Z"></path>
        <path id="path-3" d="M0,0 L76,0 L76,19 L0,19 L0,0 Z"></path>
        <filter x="-50%" y="-50%" width="200%" height="200%" filterUnits="objectBoundingBox" id="filter-4">
            <feOffset dx="0" dy="2" in="SourceAlpha" result="shadowOffsetOuter1"></feOffset>
            <feGaussianBlur stdDeviation="2" in="shadowOffsetOuter1" result="shadowBlurOuter1"></feGaussianBlur>
            <feColorMatrix values="0 0 0 0 0   0 0 0 0 0   0 0 0 0 0  0 0 0 0.131368886 0" in="shadowBlurOuter1" type="matrix" result="shadowMatrixOuter1"></feColorMatrix>
            <feMerge>
                <feMergeNode in="shadowMatrixOuter1"></feMergeNode>
                <feMergeNode in="SourceGraphic"></feMergeNode>
            </feMerge>
        </filter>
    </defs>
    <g id="AppIcons" stroke="none" stroke-width="1" fill="none" fill-rule="evenodd" sketch:type="MSPage">
        <g id="76" sketch:type="MSArtboardGroup">
            <g id="Icon" sketch:type="MSLayerGroup">
                <rect id="bg" fill="#303030" sketch:type="MSShapeGroup" x="0" y="0" width="76" height="76"></rect>
                <g id="Group">
                    <g id="Cell" transform="translate(0.000000, 57.000000)" sketch:type="MSShapeGroup">
                        <path d="M0,0 L56,0 L56,19 L0,19 L0,0 Z" id="background" fill="#1061C2"></path>
                        <rect id="hairline" fill-opacity="0.199999988" fill="#303030" x="0" y="18.5" width="56" height="0.5"></rect>
                    </g>
                    <g id="Cell" transform="translate(0.000000, 38.000000)">
                        <g id="background">
                            <use fill="#1473DB" fill-rule="evenodd" sketch:type="MSShapeGroup" xlink:href="#path-1"></use>
                            <use fill="none" xlink:href="#path-1"></use>
                        </g>
                        <rect id="hairline" fill-opacity="0.199999988" fill="#303030" sketch:type="MSShapeGroup" x="0" y="18.5" width="66" height="0.5"></rect>
                    </g>
                    <g id="Cell" transform="translate(0.000000, 19.000000)">
                        <g id="background">
                            <use fill="#1883F8" fill-rule="evenodd" sketch:type="MSShapeGroup" xlink:href="#path-2"></use>
                            <use fill="none" xlink:href="#path-2"></use>
                        </g>
                        <rect id="hairline" fill-opacity="0.199999988" fill="#303030" sketch:type="MSShapeGroup" x="0" y="18.5" width="76" height="0.5"></rect>
                    </g>
                    <g id="Cell">
                        <g id="background">
                            <use fill="#1B9BFC" fill-rule="evenodd" sketch:type="MSShapeGroup" xlink:href="#path-3"></use>
                            <use fill="none" xlink:href="#path-3"></use>
                        </g>
                        <rect id="hairline" fill-opacity="0.199999988" fill="#303030" sketch:type="MSShapeGroup" x="0" y="18.5" width="76" height="0.5"></rect>
                    </g>
                </g>
                <g id="Ruler" fill="#FFFFFF" sketch:type="MSShapeGroup">
                    <rect id="background" fill-opacity="0.25" x="0" y="0" width="18" height="76"></rect>
                    <g id="Dashes" transform="translate(0.000000, 2.500000)">
                        <rect id="Rectangle-97" x="0" y="0" width="8" height="0.5"></rect>
                        <rect id="Rectangle-97" x="0" y="5" width="8" height="0.5"></rect>
                        <rect id="Rectangle-97" x="0" y="10" width="8" height="0.5"></rect>
                        <rect id="Rectangle-97" x="0" y="15" width="8" height="0.5"></rect>
                        <rect id="Rectangle-97" x="0" y="20" width="8" height="0.5"></rect>
                        <rect id="Rectangle-97" x="0" y="25" width="8" height="0.5"></rect>
                        <rect id="Rectangle-97" x="0" y="30" width="8" height="0.5"></rect>
                        <rect id="Rectangle-97" x="0" y="35" width="8" height="0.5"></rect>
                        <rect id="Rectangle-97" x="0" y="40" width="8" height="0.5"></rect>
                        <rect id="Rectangle-97" x="0" y="45" width="8" height="0.5"></rect>
                        <rect id="Rectangle-97" x="0" y="50" width="8" height="0.5"></rect>
                        <rect id="Rectangle-97" x="0" y="55" width="8" height="0.5"></rect>
                        <rect id="Rectangle-97" x="0" y="60" width="8" height="0.5"></rect>
                        <rect id="Rectangle-97" x="0" y="65" width="8" height="0.5"></rect>
                        <rect id="Rectangle-97" x="0" y="70" width="8" height="0.5"></rect>
                    </g>
                </g>
                <path d="M16.6784292,36.1302096 L12.6446185,40.1892316 L28.7798613,56.4253196 L63.3553815,21.6337024 L59.3215708,17.5746804 L28.7798613,48.3072756 L16.6784292,36.1302096 Z" id="WhiteCheckmark" fill="#FFFFFF" filter="url(#filter-4)" sketch:type="MSShapeGroup"></path>
            </g>
        </g>
    </g>
</svg>