<?xml version="1.0" encoding="UTF-8" standalone="no"?>
<svg width="16px" height="22px" viewBox="0 0 16 22" version="1.1" xmlns="http://www.w3.org/2000/svg" xmlns:xlink="http://www.w3.org/1999/xlink" xmlns:sketch="http://www.bohemiancoding.com/sketch/ns">
    <!-- Generator: Sketch 3.4.2 (15855) - http://www.bohemiancoding.com/sketch -->
    <title>sync-icon</title>
    <desc>Created with Sketch.</desc>
    <defs></defs>
    <g id="Website" stroke="none" stroke-width="1" fill="none" fill-rule="evenodd" sketch:type="MSPage">
        <g id="Desktop-HD" sketch:type="MSArtboardGroup" transform="translate(-229.000000, -195.000000)">
            <g id="sync-icon" sketch:type="MSLayerGroup" transform="translate(225.000000, 194.000000)">
                <g id="Group" sketch:type="MSShapeGroup">
                    <path d="M12,4 L12,1 L8,5 L12,9 L12,6 C15.31,6 18,8.69 18,12 C18,13.01 17.75,13.97 17.3,14.8 L18.76,16.26 C19.54,15.03 20,13.57 20,12 C20,7.58 16.42,4 12,4 L12,4 Z M12,18 C8.69,18 6,15.31 6,12 C6,10.99 6.25,10.03 6.7,9.2 L5.24,7.74 C4.46,8.97 4,10.43 4,12 C4,16.42 7.58,20 12,20 L12,23 L16,19 L12,15 L12,18 L12,18 Z" id="Shape" fill="#FFFFFF"></path>
                    <path d="M0,0 L24,0 L24,24 L0,24 L0,0 Z" id="Shape"></path>
                </g>
            </g>
        </g>
    </g>
</svg>